<svg height="60" viewBox="0 0 60 60" width="60" xmlns="http://www.w3.org/2000/svg"><g fill="none" fill-rule="evenodd"><circle cx="30" cy="30" fill="#2291ff" r="9"/><path d="m40.3330592 23.5517179c1.2129934 1.9293676 1.8544408 4.1588998 1.8544408 6.4482821 0 6.6876828-5.4413377 12.1290205-12.1290205 12.1290205-6.6881396 0-12.1290204-5.4413377-12.1290204-12.1290205 0-6.6881396 5.4408808-12.1290205 12.1290204-12.1290205 2.5438597 0 4.9789839.7789656 7.0426718 2.2532895.3951937.2818896.486568.831049.2042216 1.2257859-.2818897.3951936-.8305922.4865679-1.2257859.2042214-1.7635234-1.2595943-3.845943-1.9252558-6.0211075-1.9252558-5.7186586 0-10.3709795 4.6523209-10.3709795 10.3709795s4.6523209 10.3709795 10.3709795 10.3709795 10.3709796-4.6523209 10.3709796-10.3709795c0-1.9576937-.5477888-3.8637609-1.5844299-5.5126096-.2585892-.4107274-.134777-.9534905.2759503-1.2116229.4111842-.2585891.9534906-.134777 1.2120797.2759504zm-11.2120797 1.7023026c-1.0663376 0-1.9334795.8671418-1.9334795 1.9334795s.8671419 1.9334795 1.9334795 1.9334795h1.875c2.0353619 0 3.6915205 1.6561586 3.6915205 3.6915205s-1.6561586 3.6915205-3.6915205 3.6915205h-.0584795v1.9334795c0 .4856543-.393823.8790205-.8790205.8790205-.4851974 0-.8790204-.3933662-.8790204-.8790205v-1.9334795h-2.8709796c-.4856542 0-.8790204-.3933662-.8790204-.8790205s.3933662-.8790205.8790204-.8790205h4.6875c1.0663377 0 1.9334796-.8671418 1.9334796-1.9334795s-.8671419-1.9334795-1.9334796-1.9334795h-1.875c-2.0353618 0-3.6915204-1.6561586-3.6915204-3.6915205s1.6561586-3.6915205 3.6915204-3.6915205h.0584796v-1.9334795c0-.4856543.393823-.8790205.8790204-.8790205.4851975 0 .8790205.3933662.8790205.8790205v1.9334795h2.8709795c.4851975 0 .8790205.3933662.8790205.8790205s-.393823.8790205-.8790205.8790205zm26.9014986 24.5275949c0 .2334613-.0927449.4568714-.2576755.621802l-5.3033626 5.3033626c-.1713267.1713267-.3965642.2572186-.621345.2572186-.2247806 0-.4500183-.0858919-.6213451-.2572186l-5.3449377-5.3449379-1.3669591 1.3674159c-.2439694.2439694-.6076389.3225512-.930647.2014802-.323008-.1215277-.5450475-.4203216-.567891-.7643457l-.6629204-9.9438048c-.0169042-.2531068.0762976-.5011878.2553911-.6802814.1790936-.1790936.4271747-.2718385.6798246-.2553911l9.9438048.6629204c.3440241.0228435.6432749.244883.7643457.5678909.1210709.3230081.0424892.6866777-.2010234.9306471l-1.3674159 1.3674159 5.3449379 5.3444809c.1644737.1649307.2572186.3883407.2572186.621345zm-6.1823831 4.0606726 4.0606725-4.0606726-5.3449378-5.3444809c-.3431104-.3435672-.3431104-.9000365 0-1.2431469l.6190606-.6190607-7.0088633-.4673794.4673794 7.0088633.6190607-.6190606c.1717837-.1713268.3965644-.2572186.6218019-.2572186.2247807 0 .4495614.0858918.621345.2572186zm7.9139255-2.6932565c.3431104.3431103.3431104.8995796 0 1.2431469l-5.3033626 5.3033625c-.1717836.1713268-.3965643.2572186-.6218019.2572186-.2247807 0-.4495614-.0858918-.621345-.2572186-.3431104-.3435672-.3431104-.9000366 0-1.2431469l5.3033626-5.3033625c.3431103-.3431104.8995796-.3431104 1.2431469 0zm.745614 1.9887609c.3431104-.3431104.8995797-.3431104 1.2426901 0 .3435672.3431104.3435672.8995796 0 1.2426901l-5.3033626 5.3033625c-.1713268.1717837-.3965643.2576755-.621345.2576755s-.4495614-.0858918-.6213451-.2576755c-.3431104-.3431104-.3431104-.8995796 0-1.24269zm-39.6637427-12.8508772c.2531068-.0164474.500731.0762975.6798246.2553911.1795504.1795504.2722953.4271746.2558479.6802814l-.6633772 9.9438048c-.0228435.3440241-.244883.642818-.5674341.7643457-.3230081.121071-.6871345.0420323-.930647-.2014802l-1.3674159-1.3674159-5.344481 5.3449379c-.1717836.1713267-.3965644.2572186-.621345.2572186-.2252377 0-.45001837-.0858919-.62180199-.2572186l-5.30336258-5.3033626c-.16493052-.1649306-.25721859-.3883407-.25721859-.621802 0-.2330043.09228807-.4564143.25721859-.621345l5.3449379-5.3449378-1.36741591-1.366959c-.24396936-.2439694-.32255123-.607639-.20102339-.9306471.12107088-.3230079.41986479-.5450474.76388889-.5678909zm-1.3523392 8.8294956.4673794-7.0084064-7.0088632.4669225.6190606.6190607c.3431104.3435673.3431104.9000365 0 1.2431469l-5.34493782 5.3444809 4.06067252 4.0606726 5.3444809-5.3449378c.3431104-.3431104.8995797-.3431104 1.2426901 0zm-13.8774671 2.0326207 5.30336257 5.3033625c.34311041.3431103.34311041.8995797 0 1.2431469-.17178363.1713268-.39656433.2572186-.62134503.2572186-.22523754 0-.45001824-.0858918-.62180187-.2572186l-5.30290573-5.3033625c-.34356725-.3435673-.34356725-.9000366 0-1.2431469.34311041-.3431104.89957976-.3431104 1.24269006 0zm-1.98876094 1.9887609 5.30336257 5.3033626c.34311041.3431104.34311041.8995796 0 1.24269-.17178362.1717837-.39656432.2576755-.62134502.2576755-.22523755 0-.45001825-.0858918-.62180188-.2576755l-5.30336257-5.3033625c-.34311041-.3431105-.34311041-.8995797 0-1.2426901.34356725-.3431104.90003649-.3431104 1.2431469 0zm39.60526314-33.4228801c-.2325475 0-.4564145-.0918311-.621345-.2572186-.1795504-.1795504-.2727522-.4271746-.255848-.6802814l.6629204-9.94380481c.0233003-.3440241.2453399-.64281802.567891-.76434574.3230081-.12152783.6866776-.04248912.930647.20148024l1.3674159 1.3674159 5.3444809-5.34493789c.3431105-.34311029.9000366-.34311029 1.2431471 0l5.3033625 5.30336257c.1644737.16493065.2572186.3883407.2572186.62180203 0 .2330043-.0927449.4564143-.2572186.621345l-5.3449379 5.3444809 1.3674159 1.3674159c.2439694.2439694.3225513.607639.2014803.9306471-.1215277.3225511-.4203217.5450474-.7643458.5678909l-9.9438047.6629204c-.0196455.0013706-.0392909.0018275-.0584796.0018275zm1.4108187-8.83178-.4673794 7.0088633 7.0088633-.4669225-.6190606-.6195175c-.3431104-.3431105-.3431104-.8995797 0-1.2426901l5.3449378-5.3444809-4.0606725-4.06067255-5.344481 5.34493775c-.3431104.3431104-.9000365.3431104-1.2431469 0zm13.8774672-2.03216376-5.3033626-5.30336258c-.3431104-.34311029-.3431104-.89957964 0-1.2431469.3431103-.34311041.8995796-.34311041 1.2426901 0l5.3033625 5.30336258c.3435673.34356725.3435673.89957965 0 1.2431469-.1713268.17132678-.3965643.25721859-.621345.25721859s-.4500184-.08589181-.621345-.25721859zm1.9887609-1.98876094-5.3033626-5.30336257c-.3431104-.34311041-.3431104-.89957965 0-1.2431469.3431104-.34311041.8995797-.34311041 1.2426901 0l5.3033626 5.30336257c.3435672.34311029.3435672.89957965 0 1.2431469-.1713268.17132679-.3965644.2572186-.6213451.2572186s-.4500182-.08589181-.621345-.2572186zm-54.40515356 3.356177c0-.23346133.09228807-.45687138.25721859-.62180203l5.30336258-5.30336257c.3431104-.34311029.89957979-.34311029 1.24314699 0l5.3449378 5.34493789 1.3669591-1.3674159c.2439693-.24396936.6080958-.32255123.930647-.20102339.3230079.12107087.5450475.41986479.567891.76388889l.6629203 9.94380481c.0169042.2531068-.0762975.5011878-.2553911.6802814-.1653874.1653875-.3892544.2572186-.621345.2572186-.0196455 0-.0392909-.0004569-.0589364-.0018275l-9.94380478-.6629204c-.3440241-.0233003-.64281801-.2453398-.76388889-.5678909-.12152784-.3230081-.04294597-.6866777.20102339-.9306471l1.36741591-1.3674159-5.3449379-5.3444809c-.16493052-.1649307-.25721859-.3883407-.25721859-.621345zm6.18238316-4.06067255-4.06067252 4.06067255 5.34493782 5.3444809c.3431104.3435672.3431104.8995796 0 1.2431469l-.6195176.6190607 7.0093202.4673794-.4673794-7.0093202-.6195175.6195175c-.3431104.3431104-.8995797.3431104-1.2426901 0zm-7.91346866 2.69325649c-.34356725-.34356725-.34356725-.89957965 0-1.2431469l5.30290573-5.30336258c.34356725-.34311041.90003661-.34311041 1.2431469 0 .34311041.34356726.34311041.89957965 0 1.2431469l-5.30336257 5.30336258c-.17178363.17132678-.39656433.25721859-.62134503.25721859s-.45001825-.08589181-.62134503-.25721859zm-1.36741591-1.73154234c-.22523754 0-.45001824-.08589181-.62180187-.2572186-.34311041-.34311041-.34311041-.89957965 0-1.2431469l5.30336257-5.30336257c.3431103-.34311041.9000365-.34311041 1.2431469 0 .34311041.34356725.34311041.90003649 0 1.2431469l-5.30336257 5.30336257c-.17178362.17178363-.39656433.2572186-.62134503.2572186z" fill="#103e6b" fill-rule="nonzero"/></g></svg>