<svg height="12" viewBox="0 0 8 12" width="8" xmlns="http://www.w3.org/2000/svg"><path d="m573.500038 20.9090393c-.135394 0-.252537-.0539405-.351619-.1619112-.098973-.1079408-.148419-.2357922-.148419-.3834945 0-.147732.049446-.2756133.148419-.3835839l3.499962-3.8181384c.098973-.1078215.216116-.1619113.351619-.1619113s.252646.0540898.351537.1619113l3.499962 3.8181384c.098891.10809.148501.2358519.148501.3835839 0 .1477321-.049637.2755537-.148501.3834945-.098918.1079707-.216143.1619112-.351564.1619112zm6.999897 2.1820109c.135421 0 .252673.053851.351564.1617919.098891.1080005.148501.2357922.148501.3834944 0 .1477619-.049637.2756432-.148501.3835243l-3.499962 3.8181085c-.098891.1079707-.216143.1620307-.351537.1620307s-.252536-.05406-.351619-.1620307l-3.499962-3.8180787c-.098973-.1079109-.148419-.2357922-.148419-.3835242 0-.1477321.049446-.2755238.148419-.3834945.098973-.1078513.216115-.1618217.351619-.1618217z" fill="#31445c" fill-rule="evenodd" transform="translate(-573 -16)"/></svg>