<svg height="65" viewBox="0 0 65 65" width="65" xmlns="http://www.w3.org/2000/svg"><g fill="none" fill-rule="evenodd"><circle cx="32.5" cy="25.16129" fill="#2291ff" r="14.677419"/><g fill="#31445c"><path d="m51.3709677 25.1612903c0-3.848629-1.1521774-7.5504838-3.3307258-10.7092742l-1.7256451 1.1920162c1.9353226 2.8054838 2.9595967 6.0963709 2.9595967 9.517258 0 4.3350807-1.6554032 8.4489516-4.6621774 11.5825807-.9141935.9529838-1.6658871 2.0076613-2.2603226 3.1367742-.1373387-.0178226-.273629-.0419355-.4162096-.0419355h-4.1935484v2.0967742h4.1935484c.5787096 0 1.0483871.4696774 1.0483871 1.0483871 0 .5787096-.4696775 1.0483871-1.0483871 1.0483871h-2.0967742v2.0967742h2.0967742c.5787096 0 1.0483871.4696774 1.0483871 1.0483871 0 .5787096-.4696775 1.0483871-1.0483871 1.0483871h-4.1935484v2.0967741h2.0066129c-1.3073387 2.2529839-3.5991129 3.7815323-6.2001613 4.1107259v-4.1107259h2.0967742v-2.0967741h-4.1935484v-2.0967742h3.1451613 1.0483871 2.0967742v-2.0967742h-2.0967742v-4.1935484h-2.0967742v-4.2491129c2.5916129-.2610484 5.0133871-1.4803226 6.7652419-3.4387097l-1.5620967-1.3985484c-1.5904033 1.7770161-3.8685484 2.7960484-6.2515323 2.7960484-4.6244355 0-8.3870968-3.7626613-8.3870968-8.3870968s3.7626613-8.3870968 8.3870968-8.3870968c2.3819355 0 4.661129 1.0190323 6.2515323 2.7960484l1.5620967-1.3985484c-1.9866935-2.2204838-4.8351613-3.4942741-7.813629-3.4942741-.4885484 0-.9666129.0450806-1.4383871.1100806l-.4529032-2.066371c1.5893548-.241129 3.2405645-.1719355 4.7953226.1960484l.4812096-2.0412097c-2.2037096-.52-4.5678225-.52-6.7715322 0l-1.0043549.2379839.9141936 4.1683871c-4.0740323 1.4383871-7.0074194 5.3184678-7.0074194 9.8789516 0 5.4264516 4.1453226 9.9030645 9.4354839 10.4304032v4.2470162h-2.0967742v2.0967742h4.1935484v2.0967742h-7.3387097v2.0967742h3.1451613v4.1935483h2.0967742v4.1254033c-.9320161-.1153226-1.8294355-.3805645-2.678629-.8030645l-.9341129 1.8776612c1.457258.7233871 3.0245967 1.0903226 4.661129 1.0903226 4.1893548 0 7.9635484-2.5066935 9.6158065-6.3081451 1.6491129-.0954033 2.9648387-1.4541129 2.9648387-3.1273387 0-.8083065-.3155646-1.5390323-.817742-2.0967742.5032258-.557742.817742-1.2884678.817742-2.0967742 0-.8334678-.3312904-1.5872581-.8628226-2.1512904.501129-.9456451 1.1354032-1.833629 1.9070161-2.6377419 3.3831452-3.5267742 5.246129-8.1554032 5.246129-13.0335484z"/><path d="m22.016129 47.1774194c0-.5787097.4696775-1.0483871 1.0483871-1.0483871h1.0483871v-2.0967742h-1.0483871c-.5787096 0-1.0483871-.4696775-1.0483871-1.0483871 0-.5787097.4696775-1.0483871 1.0483871-1.0483871h4.1935484v-2.0967742h-4.1935484c-.1341935 0-.2631451.0230645-.3931451.0398387-.5650807-1.105-1.2706452-2.1051613-2.1229839-2.9690323-2.8683871-2.9103226-4.5122581-6.6918548-4.7649194-10.6998387h2.0768549c.3585484 5.0647581 3.3024193 9.5843549 7.8639516 11.9641936l.9708064-1.8587904c-4.1788709-2.1806451-6.7757258-6.4549193-6.7757258-11.1537903 0-4.6988709 2.5968549-8.9731451 6.7757258-11.1537903l-.9708064-1.8587903c-4.5615323 2.3798387-7.5054032 6.8994355-7.8639516 11.9641935h-2.0758065c.0241129-.3994355.0356452-.7988709.0880645-1.2004032.9781452-7.5200806 7.1636291-13.585 14.7099194-14.41951613 3.0801613-.34177419 6.1131452.16774194 8.8347581 1.39959678l-2.0810484 3.60854835.969758.5053226c4.1778226 2.1816936 6.7746775 6.4559678 6.7746775 11.1548387 0 1.2360484-.1834678 2.4406452-.5241936 3.5865323l-1.8996774-.975c.2170161-.8491936.3270968-1.7245968.3270968-2.6115323 0-1.6365322-.3669355-3.2038709-1.0903226-4.6600806l-1.8776613.9341129c.4225.8481451.6877419 1.7466129.8030645 2.678629h-2.1229839c-.501129-2.9700806-3.0843548-5.2419355-6.1959677-5.2419355-3.4691129 0-6.2903226 2.8212097-6.2903226 6.2903226s2.8212097 6.2903226 6.2903226 6.2903226c3.1105645 0 5.6937903-2.2718548 6.1959677-5.2419355h2.1187904c-.0744355.5954839-.2044355 1.1804839-.4046775 1.7476613l-.3040322.863871 3.6808871 1.8881451c-1.1605645 2.3567742-3.0508065 4.3361291-5.4820161 5.6046774l.9708064 1.8587904c4.8739516-2.5433871 7.9016936-7.5295162 7.9016936-13.0125807 0-5.1182258-2.637742-9.8034677-6.9529033-12.4716129l1.0494355-1.82c1.0987097.6762097 2.1303226 1.4771774 3.0654839 2.4091936l1.4803226-1.4845162c-4.0750807-4.0593548-9.7133065-6.0177419-15.47-5.38556448-8.4940323.93935484-15.4574194 7.76749998-16.5571775 16.23322578-.7600806 5.8384678 1.1584678 11.5762904 5.2629033 15.7394355.6971774.7066129 1.2769355 1.5264516 1.7413709 2.4322581-.5399193.566129-.8775 1.3283064-.8775 2.1701613 0 .8083112.3155646 1.5390322.817742 2.0967742-.5032258.5577419-.817742 1.2884677-.817742 2.0967742 0 1.6753225 1.3199194 3.036129 2.9721775 3.1273387.4445161 1.0242742 1.04 1.9709677 1.7937903 2.8138709l1.5620968-1.3985484c-.3879033-.4340322-.7233871-.9016129-1.0106452-1.3975h2.0212903v-2.0967741h-4.1935484c-.5787096 0-1.0483871-.4696775-1.0483871-1.0483871zm10.483871-17.8225807c-2.3127419 0-4.1935484-1.8808064-4.1935484-4.1935484 0-2.3127419 1.8808065-4.1935484 4.1935484-4.1935484s4.1935484 1.8808065 4.1935484 4.1935484c0 2.312742-1.8808065 4.1935484-4.1935484 4.1935484z" fill-rule="nonzero"/><path d="m17.9714516 57.6508065 4.5793549-.6541936-4.2197581 5.9066129h-18.3310484v2.0967742h19.4108871l4.7020161-6.583871v4.4870968h2.0967742v-8.5475l-8.5359677 1.2192742z"/><path d="m56.4640323 2.10725806.2977419 2.07580646 4.5070161-.64370968-6.2169355 7.99290326h-6.8260483v2.0967742h7.8513709l6.8260484-8.77604843v4.5825h2.0967742v-8.5475z"/></g><g fill="#50e3c2"><path d="m57.66129 25.16129h2.096774v2.096774h-2.096774z"/><path d="m57.66129 29.354839h2.096774v2.096774h-2.096774z"/><path d="m59.758065 27.258065h2.096774v2.096774h-2.096774z"/><path d="m55.564516 27.258065h2.096774v2.096774h-2.096774z"/><path d="m15.725807 0h2.096774v2.096774h-2.096774z"/><path d="m15.725807 4.193548h2.096774v2.096774h-2.096774z"/><path d="m17.822581 2.096774h2.096774v2.096774h-2.096774z"/><path d="m13.629032 2.096774h2.096774v2.096774h-2.096774z"/><path d="m52.419355 41.935484h2.096774v2.096774h-2.096774z"/><path d="m52.419355 46.129032h2.096774v2.096774h-2.096774z"/><path d="m54.516129 44.032258h2.096774v2.096774h-2.096774z"/><path d="m50.322581 44.032258h2.096774v2.096774h-2.096774z"/><path d="m7.33871 31.451613h2.096774v2.096774h-2.096774z"/><path d="m7.33871 35.645161h2.096774v2.096774h-2.096774z"/><path d="m9.435484 33.548387h2.096774v2.096774h-2.096774z"/><path d="m5.241935 33.548387h2.096774v2.096774h-2.096774z"/><path d="m2.096774 15.725807h2.096774v2.096774h-2.096774z"/><path d="m2.096774 19.919355h2.096774v2.096774h-2.096774z"/><path d="m4.193548 17.822581h2.096774v2.096774h-2.096774z"/><path d="m0 17.822581h2.096774v2.096774h-2.096774z"/></g></g></svg>