<svg height="23" viewBox="0 0 27 23" width="27" xmlns="http://www.w3.org/2000/svg"><path d="m440.606667 325.328504.040698.009456h-17.44634l5.484492-5.837857c.268565-.285015.415883-.671114.415883-1.076349s-.147318-.788632-.415883-1.074322l-.853388-.906826c-.268353-.285015-.625945-.442606-1.007278-.442606-.381545 0-.739349.156466-1.007702.441481l-9.401472 9.984309c-.269413.286141-.416731.667287-.415677 1.072747-.001054.407711.146264.789082.415677 1.074772l9.401472 9.98521c.268353.28479.625945.441481 1.007702.441481.381333 0 .738925-.156916 1.007278-.441481l.853388-.906825c.268565-.284565.415883-.664585.415883-1.06982 0-.40501-.147318-.764993-.415883-1.049783l-5.546387-5.870501h17.487038c.78577 0 1.446054-.719292 1.446054-1.5534v-1.282568c0-.834108-.679785-1.497118-1.465555-1.497118z" fill="#99abc3" transform="matrix(-1 0 0 -1 442.072222 339)"/></svg>