<svg height="62" viewBox="0 0 62 62" width="62" xmlns="http://www.w3.org/2000/svg"><g fill="none" fill-rule="evenodd"><path d="m26 29h10v8h-10z" fill="#2291ff"/><path d="m59.2753906 26.3376897c1.5023194 0 2.7246094 1.2222807 2.7246094 2.7245886s-1.22229 2.7245886-2.7246094 2.7245886c-1.1839752 0-2.1934051-.7591953-2.568512-1.8163924h-5.181488v1.5515018c0 1.2402555-.1045379 2.4634822-.3088836 3.6554897h2.6749419c.3751069-1.056724 1.3845368-1.8163924 2.568512-1.8163924 1.5023194 0 2.7246094 1.2222807 2.7246094 2.7245886s-1.22229 2.7245886-2.7246094 2.7245886c-1.1839752 0-2.1934051-.7591952-2.568512-1.8163924h-3.0699157c-.7606201 2.8754816-2.1210327 5.5177649-4.0093384 7.7187217-4.0817108 4.7571506-9.2315063 8.3615542-15.3065338 10.7143499-.1627197.0629116-.3339538.0946038-.505188.0946038-.1717071 0-.3429413-.0316922-.5066071-.0946038-2.9365234-1.1376103-5.6592406-2.5732225-8.152069-4.2883888v5.5683779c1.0572052.3746309 1.8164062 1.3845261 1.8164062 2.5684923 0 1.5023079-1.22229 2.7245886-2.7246094 2.7245886-1.5023193 0-2.7246093-1.2222807-2.7246093-2.7245886 0-1.1844392.7596741-2.1938614 1.8164062-2.5684923v-6.89898c-1.4299469-1.1167975-2.7752228-2.3324559-4.0287322-3.6479214-.3457795-.3632785-.3315888-.9379963.0312194-1.2837731.3632812-.3462498.9380035-.3320593 1.284256.0312191 3.6309204 3.811113 8.0673981 6.7603856 13.1878662 8.7669315 5.727356-2.2444744 10.5824585-5.6568325 14.4333343-10.1443624 2.757248-3.214163 4.2756501-7.4789009 4.2756501-12.0080565v-4.4274564c0-.5014.4067993-.9081962.9082031-.9081962.5018768 0 .9082031.4067962.9082031.9081962v1.0595622h5.181488c.3751069-1.0571972 1.3845368-1.8163924 2.568512-1.8163924zm-37.8417969 33.8454449c.5009309 0 .9082032-.4072692.9082032-.9081962s-.4072723-.9081962-.9082032-.9081962c-.5009308 0-.9082031.4072692-.9082031.9081962s.4072723.9081962.9082031.9081962zm35.0263672-25.0056686c-.5009308 0-.9082031.4072692-.9082031.9081962s.4072723.9081962.9082031.9081962c.5009309 0 .9082032-.4072692.9082032-.9081962s-.4072723-.9081962-.9082032-.9081962zm2.8154297-5.2069915c.5009308 0 .9082031-.4072692.9082031-.9081962s-.4072723-.9081962-.9082031-.9081962-.9082031.4072692-.9082031.9081962.4072723.9081962.9082031.9081962zm-46.984375 1.5515018c0 3.9757234 1.1423493 7.6960168 3.3031159 10.7588138.2890166.4096344.1911011.9763109-.2185364 1.2657984-.1589356.1121055-.3419952.1660297-.5226898.1660297-.2852326 0-.5662079-.1338644-.7431183-.3845643-2.377884-3.3707324-3.6351776-7.4533582-3.6351776-11.8060776v-2.5202444h-2.36605831c-.37510691 1.0571971-1.38453678 1.8163924-2.56851203 1.8163924-1.50231933 0-2.72460937-1.2222807-2.72460937-2.7245886s1.22229004-2.7245886 2.72460937-2.7245886c1.18397525 0 2.19340512.7591952 2.56851203 1.8163924h2.36605831v-5.2069915h-5.181488c-.3751069 1.0571971-1.38453678 1.8163923-2.56851202 1.8163923-1.50231934 0-2.72460938-1.2222807-2.72460938-2.7245885 0-1.5023079 1.22229004-2.7245886 2.72460938-2.7245886 1.18397524 0 2.19340512.7591952 2.56851202 1.8163924h5.181488v-5.49506c0-.649455.4474792-1.2203887 1.0643005-1.3575642 3.2487183-.7222998 6.6497498-2.1460865 10.10849-4.2306806 5.7685089-3.4776346 12.9366913-3.47810759 18.7056732 0 1.0666657.64283265 2.1276551 1.2222807 3.18013 1.7383443v-5.52391408c-1.0567321-.37510404-1.8164062-1.38452621-1.8164062-2.56849243 0-1.50230788 1.22229-2.72458859 2.7246093-2.72458859 1.5023194 0 2.7246094 1.22228071 2.7246094 2.72458859 0 1.18396622-.759201 2.19338839-1.8164062 2.56849243v6.35311608c1.7350464.7350714 3.4436035 1.2922875 5.1114807 1.6631343.6168213.1371755 1.0643005.7081092 1.0643005 1.3575642v8.5422473c0 .5018731-.4063263.9081962-.9082031.9081962s-.9082031-.4063231-.9082031-.9081962v-8.2087691c-1.832489-.4332852-3.7042389-1.0737528-5.600113-1.9124152-.0179748-.0066222-.0350036-.0146635-.0520324-.0227049-1.5340119-.6811472-3.0836334-1.4923745-4.6417694-2.4313169-5.1904755-3.12901975-11.6396637-3.12901975-16.8301392 0-3.5013122 2.1110832-6.9624176 3.5788607-10.2939148 4.366437zm32.1503906-29.70558391c-.5009308 0-.9082031.4072692-.9082031.9081962 0 .50092699.4072723.9081962.9082031.9081962.5009309 0 .9082032-.40726921.9082032-.9081962 0-.500927-.4072723-.9081962-.9082032-.9081962zm-41.71679682 20.16195561c.50093081 0 .90820312-.4072692.90820312-.9081962s-.40727231-.9081962-.90820312-.9081962c-.50093082 0-.90820313.4072692-.90820313.9081962s.40727231.9081962.90820313.9081962zm2.81542968 7.0233839c.50093082 0 .90820313-.4072692.90820313-.9081962s-.40727231-.9081962-.90820313-.9081962c-.50093081 0-.90820312.4072692-.90820312.9081962s.40727231.9081962.90820312.9081962zm15.46878054-13.3623096c-1.7000427.8405545-3.4090729 1.5472447-5.0849915 2.1020958v13.7799852c0 3.662585 1.2071533 7.0867684 3.3996125 9.6424893 3.1564788 3.6786676 7.0839844 6.5636096 11.6765594 8.5777239 4.5921021-2.0136413 8.5196076-4.8985833 11.6760864-8.5772509 2.1924592-2.5557208 3.4000855-5.9803773 3.4000855-9.6429623v-13.7799852c-2.8073884-.929482-5.6776887-2.2728555-8.5361634-3.9960632-1.9725036-1.1891695-4.234024-1.8178115-6.5400085-1.8178115-2.3055114 0-4.5670319.628642-6.5395355 1.8178115-.0666962.0402065-.1338654.0804131-.2010345.1206197-.4309235.2568492-.988144.1158897-1.2449951-.3150305-.2568513-.4309202-.1158906-.9886094.3150329-1.2454586l.1929931-.1158897c2.2558441-1.3599291 4.841385-2.0784448 7.4775391-2.0784448 2.6366273 0 5.222168.7185157 7.4775391 2.0784448 2.8381347 1.7109092 5.6800537 3.0292128 8.447235 3.9180151.5789795.1858965.967804.7185157.967804 1.3253989v14.0888665c0 4.0958703-1.3632506 7.9400944-3.8381042 10.8255095-3.3868408 3.9473423-7.6090393 7.0276411-12.5497589 9.1557528-.1603546.0690608-.3325348.1035912-.504715.1035912s-.3443604-.0345304-.5042419-.1035912c-4.9411927-2.1285847-9.1638642-5.2088835-12.551178-9.1566989-2.4743805-2.884469-3.8371582-6.7286931-3.8371582-10.8245634v-14.0888665c0-.6068832.3888245-1.1395024.967804-1.3253989 1.68396-.5411335 3.4095459-1.2464047 5.1280365-2.0964195.4498444-.2223188.9947662-.0378415 1.2170867.4115265.2223205.4493678.0378418.9942855-.4115295 1.2166044zm9.9911804 5.6123687c2.504181 0 4.5410156 2.0368191 4.5410156 4.540981v1.5136603h.3027344c1.1683655 0 2.1191406.9507678 2.1191406 2.1191245v7.2655695c0 1.1683567-.9507751 2.1191245-2.1191406 2.1191245h-9.6875c-1.1683655 0-2.1191406-.9507678-2.1191406-2.1191245v-7.2655695c0-1.1683567.9507751-2.1191245 2.1191406-2.1191245h.3027344v-1.5136603c0-2.5041619 2.0373077-4.540981 4.5410156-4.540981zm-2.7246094 4.540981v1.5136603h5.4492188v-1.5136603c0-1.5023079-1.2222901-2.7245886-2.7246094-2.7245886s-2.7246094 1.2222807-2.7246094 2.7245886zm7.8710938 3.6327848c0-.1669757-.1357575-.3027321-.3027344-.3027321h-9.6875c-.1669769 0-.3027344.1357564-.3027344.3027321v7.2655695c0 .1669757.1357575.3027321.3027344.3027321h9.6875c.1669769 0 .3027344-.1357564.3027344-.3027321zm-5.1464844 0c1.5023193 0 2.7246094 1.2222807 2.7246094 2.7245886 0 1.1839662-.759201 2.1933883-1.8164063 2.5684924v1.0642923c0 .5014-.4063263.9081962-.9082031.9081962-.5014038 0-.9082031-.4067962-.9082031-.9081962v-1.0642923c-1.0567321-.3751041-1.8164063-1.3845262-1.8164063-2.5684924 0-1.5023079 1.2222901-2.7245886 2.7246094-2.7245886zm0 3.6327848c.5009308 0 .9082031-.4072693.9082031-.9081962 0-.500927-.4072723-.9081962-.9082031-.9081962s-.9082031.4072692-.9082031.9081962c0 .5009269.4072723.9081962.9082031.9081962z" fill="#103e6b" fill-rule="nonzero"/></g></svg>