<svg height="65" viewBox="0 0 65 65" width="65" xmlns="http://www.w3.org/2000/svg"><path d="m42.5673854 28.9325989-6.1554517-6.1554453c-4.0522185 3.2392069-9.9290081 2.7486604-13.3881013-1.1175677-3.4590932-3.866228-3.2954506-9.7611657.3728615-13.4294739 3.668312-3.66818128 9.5632559-3.83195071 13.429488-.3728611 3.866232 3.4590896 4.3567791 9.335873 1.1175688 13.3880873l6.1554518 6.1554453c.2777735.2728221.3878419.6736129.2881837 1.0500286-.0996583.3764158-.3935549.6703121-.769971.7699703-.3762893.0996581-.7772074-.0104102-1.0500298-.2881835zm-8.9840955-6.9247807v-.9695405c-.0142188-.6968452-.3411232-1.3502725-.8903226-1.7795008-.6578714-.5584664-1.496778-.8578217-2.3596787-.8420795-1.6150984-.1522167-3.0570326 1.0109271-3.2500014 2.6215803v.9695405c2.0537216.989472 4.4462811.989472 6.5000027 0zm-5.4165843-7.9245361c.0013965 1.1961516.9705571 2.1653112 2.166583 2.1667077 1.1966606 0 2.1667098-.9701752 2.1667098-2.1667077 0-1.1965324-.9699222-2.1667076-2.1665829-2.1667076-1.1966606 0-2.1667099.9700482-2.1667099 2.1667076zm5.9350611 3.5282791c.8808011.735185 1.4490435 1.7778504 1.5890729 2.9163653 2.4300108-2.4259457 2.9267786-6.1819785 1.2108794-9.1562345-1.7158991-2.97425589-5.2161252-4.42431357-8.53265-3.53500749s-5.6216137 3.89618899-5.6192016 7.32988799c-.0011425 2.0118249.7995512 3.9411303 2.2251084 5.3608462.1953809-1.4245401 1.0312406-2.6817561 2.269415-3.4130057-1.672862-1.7002821-1.6571198-4.4326925.0350391-6.1138047 1.6921589-1.68111222 4.4246991-1.67870012 6.113938.005332 1.689239 1.6840322 1.700157 4.4165695.0243751 6.1139317.2408301.1452343.4695998.3096385.6840237.4916892zm-7.784388 11.955803c.4237697-.4184373 1.1060161-.4162791 1.5271198.0046972.4211036.4212302.4232619 1.1033489.0048242 1.5271182l-6.5000027 6.4999959c-.2031251.2032518-.4786135.3173826-.7659085.3173826-.2872951 0-.5627835-.1141308-.7659086-.3173826l-2.1667098-2.1667076c-.2765041-.273076-.3855568-.673359-.2857716-1.0488861s.393174-.6689156.7687015-.7687007c.3755275-.099785.7758108.0092676 1.0488871.2857713l1.4006744 1.400673zm20.2659166 4.0159056c.5983303 0 1.0834184.4850876 1.0832915 1.0832904 0 .5982027-.4849612 1.0832903-1.0832915 1.0832903h-13.0000054c-.5983303 0-1.0832915-.4849606-1.0832915-1.0832903 0-.5982028.4849612-1.0832904 1.0832915-1.0832904zm-20.2659166 5.7340882c.4237697-.4184372 1.1060161-.416279 1.5269928.0048242.4211037.4212302.4232619 1.1033489.0048242 1.5271182l-6.5000027 6.4999959c-.2031251.2032518-.4786134.3173826-.7659085.3173826-.287295 0-.5627834-.1141308-.7659085-.3173826l-2.1667099-2.1667076c-.4184377-.4237693-.4162795-1.1060149.0048242-1.5271182.4212307-.4211032 1.1033501-.4232614 1.5271198-.0048242l1.4006744 1.4006729zm20.2659166 4.0159057c.5983303 0 1.0832915.4849606 1.0832915 1.0832903s-.4849612 1.0832904-1.0832915 1.0832904h-13.0000054c-.5983303 0-1.0832915-.4849607-1.0832915-1.0832904s.4849612-1.0832903 1.0832915-1.0832903zm-20.2659166 5.7340882c.4237697-.4184373 1.1060161-.4162791 1.5269928.0048242.4211037.4212302.4232619 1.1033489.0048242 1.5271182l-6.5000027 6.4999959c-.2031251.2032518-.4786134.3173826-.7659085.3173826-.287295 0-.5627834-.1141308-.7659085-.3173826l-2.1667099-2.1667077c-.4184377-.4237692-.4162795-1.1060149.0048242-1.5271181.4212307-.4211033 1.1033501-.4232615 1.5271198-.0048242l1.4006744 1.4006729zm20.2659166 4.0159056c.5983303 0 1.0832915.4849607 1.0832915 1.0832904s-.4849612 1.0832903-1.0832915 1.0832903h-13.0000054c-.5983303 0-1.0832915-.4849606-1.0832915-1.0832903s.4849612-1.0832904 1.0832915-1.0832904zm8.6667126-43.77175947c6.290276 6.15963477 9.8090372 14.61001037 9.7492423 23.41382317-.059668 8.8036858-3.6926871 17.2056922-10.0659905 23.2793798l-.0015235.0013965-.0191699.0192969c-.3337599.3227146-.6954495.643271-1.0584086.9638275-12.2099758 10.6608819-30.4120146 10.6834796-42.6483966.0529394-.4227541-.3734959-.7844437-.6940523-1.1256938-1.0241302l-.0118067-.0118067-.0016504-.0015234c-6.37317643-6.0736876-10.00619552-14.475694-10.06586351-23.2793798-.05966799-8.8038128 3.45896628-17.2541884 9.74924232-23.41382317v-6.06150008c.00203125-1.79410043 1.45589909-3.24809365 3.25000139-3.24999795h39.0000161c1.7941023.0019043 3.2480971 1.45589752 3.2500014 3.24999795zm-45.50001889 43.23919147v-40.1012931c-4.9141036 5.5195376-7.6149055 12.6605194-7.58329416 20.0505831-.03161134 7.3900637 2.66919056 14.5310455 7.58329416 20.05071zm43.33330899 2.2176158v-51.51830735c-.0005078-.59807579-.4852151-1.08265557-1.0832915-1.08329033h-39.0000161c-.5980765.00050781-1.0826567.48521454-1.0832915 1.08329033v51.51107105c.2206446.2032518.4402736.4076462.6648538.6063277 5.5191624 4.8136786 12.5948978 7.4658547 19.9184457 7.4658547 7.3028546.0035547 14.3608165-2.633387 19.8723618-7.4245949.2565724-.227246.4877541-.4349412.7109378-.6403512zm2.1667099-2.2182506c10.1111858-11.4548462 10.1111858-28.6459389 0-40.1006583z" fill="#011936"/></svg>