<svg height="62" viewBox="0 0 62 62" width="62" xmlns="http://www.w3.org/2000/svg"><g fill="none" transform="translate(1 1)"><path d="m10.3851562 11.8939453c-3.26906245 0-5.92863276-2.65945311-5.92863276-5.92828124 0-3.26964844 2.65945312-5.92921875 5.92863276-5.92921875 3.2696485 0 5.9298047 2.65945313 5.9298047 5.92921875 0 3.26847656-2.6601562 5.92828124-5.9298047 5.92828124zm0-9.59941405c-2.02347651 0-3.67054682 1.64695312-3.67054682 3.67113281s1.64695312 3.66984375 3.67054682 3.66984375c2.0246485 0 3.6713672-1.64613281 3.6713672-3.66984375 0-2.02417969-1.6467187-3.67113281-3.6713672-3.67113281zm-1.12898433 32.79749995h2.25808593v14.3988282h-2.25808593zm-2.88421875 14.3994141h-2.25808593v-16.0122656h-4.11386719v-13.1285156c0-1.6746094.65214844-3.2496094 1.8365625-4.4342579 1.18464844-1.1846484 2.75964844-1.8375 4.43484375-1.8375h8.85386715v2.2584375h-8.85374996c-1.07214844 0-2.07960938.4176563-2.83734375 1.1757422-.7584375.758086-1.17574219 1.7661328-1.17574219 2.8376953v10.8701954h4.11363281v18.2704687zm2.88421875-31.1214844h2.25808593v2.2590235h-2.25808593zm7.40074223 31.1214844h-2.258086v-18.2703516h5.2427344v2.258086h-2.9846484zm32.9573437-37.5975c-3.2688281 0-5.9286328-2.65945311-5.9286328-5.92828124 0-3.26964844 2.6594531-5.92921875 5.9286328-5.92921875 3.2690625 0 5.9294531 2.65945313 5.9294531 5.92921875 0 3.26847656-2.6602734 5.92828124-5.9294531 5.92828124zm0-9.59941405c-2.0238281 0-3.6701953 1.64695312-3.6701953 3.67113281s1.6463672 3.66984375 3.6701953 3.66984375c2.0240625 0 3.6711328-1.64613281 3.6711328-3.66984375 0-2.02417969-1.6469531-3.67113281-3.6711328-3.67113281zm-1.1282812 32.79749995h2.2580859v14.3988282h-2.2580859zm7.4001562 14.3994141h-2.2580859v-18.2703516h4.1138672v-10.8701953c0-1.071914-.4178907-2.0796093-1.1753907-2.8376953-.7580859-.7580859-1.7657812-1.1757422-2.8376953-1.1757422h-8.8542187v-2.2584375h8.8542187c1.6755469 0 3.2498438.6528516 4.4346094 1.8375 1.1840625 1.1845313 1.8365625 2.7595313 1.8365625 4.434375v13.1286328h-4.1138672zm-7.4001562-31.1214844h2.2580859v2.2590235h-2.2580859zm-2.8848047 31.1214844h-2.258086v-16.0122656h-2.985v-2.258086h5.243086z" fill="#103e6b" stroke="#fff" stroke-width=".5" transform="translate(0 10.429688)"/><path d="m37.9667742 20.8810923c-1.0303797-1.0040029-2.3812509-1.5062876-3.7319283-1.5062876l-4.2223083 4.1143154-4.2224053-4.1143154c-1.3506774 0-2.7012578.5023792-3.7319283 1.5062876-1.0303797 1.004475-1.5458603 2.3200096-1.5458603 3.636583v9.2569972h4.2221146v3.6001322h10.5557709v-3.6001322h4.2221145v-9.2569972c0-1.3164789-.5151898-2.632108-1.5455695-3.636583z" fill="#2291ff"/><path d="m5.14488281 39.7773047h-5.10515625v-16.0203516c0-2.0061328.78117188-3.891914 2.19960938-5.3111719 1.41867187-1.4186718 3.30539062-2.1998437 5.31117187-2.1998437h10.21136719c2.0061328 0 3.8925.7815234 5.3109375 2.1998437 1.4186719 1.4192579 2.1999609 3.3053907 2.1999609 5.3111719v16.0203516h-5.1053906v20.144414h-2.2580859v-24.6780468h2.2580859v2.2751953h2.8473047v-13.7619141c0-1.4025-.5463281-2.7221484-1.5386719-3.7146094-.9921093-.9917578-2.3109375-1.5384375-3.7140234-1.5384375h-10.2113672c-1.40308594 0-2.72214844.5465625-3.71402344 1.5384375-.99210937.9923438-1.5384375 2.3121094-1.5384375 3.7146094v13.7619141h2.84671875v-2.2751953h2.25808594v24.6780468h-2.25808594zm7.51136719-25.5278906c-3.90691406 0-7.08574219-3.1782422-7.08574219-7.08574223 0-3.9075 3.17882813-7.08539062 7.08574219-7.08539062 3.9069141 0 7.0857422 3.17824219 7.0857422 7.08574219 0 3.90749996-3.1788281 7.08539066-7.0857422 7.08539066zm0-11.91304691c-2.66191406 0-4.82730469 2.16574218-4.82730469 4.82730468s2.16539063 4.82765623 4.82730469 4.82765623c2.6619141 0 4.8275391-2.16574216 4.8275391-4.82730466s-2.165625-4.82765625-4.8275391-4.82765625zm-1.1280469 39.71437501h2.258086v17.8680469h-2.258086zm-6.38332029-2.2734375h1.12945313v-2.2584375h-1.12945313zm15.02249999-2.2584375h-1.1288672v2.2584375h1.1288672zm-8.6391797-12.9101953h2.258086v2.2586718h-2.258086zm0 4.515h2.258086v2.2584375h-2.258086z" fill="#103e6b" stroke="#fff" stroke-width=".5" transform="translate(17.34375)"/></g></svg>