<svg height="65" viewBox="0 0 70 65" width="70" xmlns="http://www.w3.org/2000/svg"><g fill="none" fill-rule="evenodd"><path d="m47.3086889 62.1365989h-24.5452625c-.1919976 0-.3760254-.0754223-.5115105-.2117626-3.4363947-3.4273631-5.328839-7.9882363-5.328839-12.8420961 0-9.9970801 8.1254832-18.1303592 18.1129808-18.1303592s18.1129808 8.1332791 18.1129808 18.1303592c0 4.8538598-1.8924443 9.414733-5.3281145 12.8420961-.1362096.1363403-.3202375.2117626-.5122351.2117626z" fill="#2291ff"/><g fill="#31445c"><path d="m37.1689062 45.3259652c-.6507812-.3855572-1.4-.6210537-2.2082812-.6210537-2.4128125 0-4.375 1.965027-4.375 4.381331 0 2.4163041 1.9621875 4.3813311 4.375 4.3813311s4.375-1.965027 4.375-4.3813311c0-.8105462-.23625-1.5597538-.6201563-2.2114768l9.0496875-9.061688-1.5465625-1.5488005zm-2.2082812 5.9509429c-1.2064063 0-2.1875-.9825135-2.1875-2.1906656 0-1.208152.9810937-2.1906655 2.1875-2.1906655 1.2064062 0 2.1875.9825135 2.1875 2.1906655 0 1.2081521-.9810938 2.1906656-2.1875 2.1906656z" fill-rule="nonzero"/><path d="m24.023125 57.848905h21.875v2.190666h-21.875z"/><path d="m28.398125 62.230236h13.125v2.190666h-13.125z"/><path d="m29.491875 19.5122579h2.1875v-6.5719966h-3.320625l6.601875-9.09126196 6.601875 9.09126196h-3.320625v6.5719966h2.1875v-4.3813311h5.429375l-10.898125-15.00605886-10.898125 15.00605886h5.429375z"/><path d="m59.023125 4.506199-10.898125 15.0060589h5.429375v3.2859983h2.1875v-5.4766638h-3.320625l6.601875-9.091262 6.601875 9.091262h-3.320625v17.5253242h2.1875v-15.3346587h5.429375z"/><path d="m17.5 17.3215924h-3.320625v5.4766638h2.1875v-3.2859983h5.429375l-10.898125-15.0060589-10.898125 15.0060589h5.429375v15.3346587h2.1875v-17.5253242h-3.320625l6.601875-9.091262z"/><path d="m5.429375 37.037582h2.1875v2.190666h-2.1875z"/><path d="m14.179375 24.988922h2.1875v2.190666h-2.1875z"/><path d="m53.554375 24.988922h2.1875v2.190666h-2.1875z"/><path d="m62.304375 37.037582h2.1875v2.190666h-2.1875z"/><path d="m43.710625 62.230236h2.1875v2.190666h-2.1875z"/><path d="m24.023125 62.230236h2.1875v2.190666h-2.1875z"/><path d="m34.960625 26.0842545c-12.665625 0-22.96875 10.31913-22.96875 23.001988 0 5.0034801 1.5990625 9.7780356 4.6254687 13.8033836l1.7478125-1.3176854c-2.73875-3.6430767-4.1857812-7.9597832-4.1857812-12.4856982 0-11.4758013 9.3220312-20.8113225 20.78125-20.8113225 11.4592187 0 20.78125 9.3355212 20.78125 20.8113225 0 4.525915-1.4470313 8.8426215-4.1846875 12.4846029l1.7478125 1.3176853c3.0253125-4.0242526 4.624375-8.7988081 4.624375-13.8022882 0-12.682858-10.303125-23.001988-22.96875-23.001988z"/></g></g></svg>