<svg height="68" viewBox="0 0 68 68" width="68" xmlns="http://www.w3.org/2000/svg"><g fill="none" fill-rule="evenodd"><circle cx="33.932137" cy="27.364185" fill="#2291ff" r="16.418511"/><path d="m65.6745915 33.0384225v-9.1604346c1.2707928-.4531509 2.1891349-1.657175 2.1891349-3.0823018 0-1.8104145-1.4732878-3.2837022-3.2837023-3.2837022-.3765311 0-.7333601.0766197-1.0704869.1937384l-4.9047565-6.1317666c.3130463-.5002173.5024064-1.088.5024064-1.72284906 0-1.81041449-1.4732877-3.28370221-3.2837022-3.28370221-.9205312 0-1.7502133.38309859-2.3478471.99496177l-8.6284748-3.98203622c.0098511-.09960563.0306479-.194833.0306479-.29662777 0-1.81041448-1.4732878-3.28370221-3.2837022-3.28370221-1.4251268 0-2.629151.91834205-3.0823019 2.18913481h-12.4430422c-.4531509-1.27079276-1.6571751-2.18913481-3.0823018-2.18913481-1.8104145 0-3.2837022 1.47328773-3.2837022 3.28370221 0 .13572636.0240804.26597988.040499.39732797l-5.4290544 2.71452716c-.5910664-.56808048-1.3901006-.92272032-2.2734165-.92272032-1.8104145 0-3.28370218 1.47328773-3.28370218 3.28370222 0 .63484909.18936016 1.22263179.50131187 1.72503826l-4.90475654 6.130672c-.33712676-.1171187-.69286117-.1937384-1.06939235-.1937384-1.81041449 0-3.28370222 1.4732877-3.28370222 3.2837022 0 1.4251267.91834206 2.6291509 2.18913481 3.0823018v6.9712998c-1.27079275.4520563-2.18913481 1.6560805-2.18913481 3.0812072 0 1.8104145 1.47328773 3.2837022 3.28370222 3.2837022 1.21606438 0 2.26684909-.6720643 2.83492957-1.6560804l5.97524343 1.0869054c.2528451 1.5597585 1.599163 2.7583099 3.2300684 2.7583099.0448773 0 .0853763-.0109457.129159-.0131349l2.0884346 5.2210866c-.6830101.6031066-1.1230261 1.4732877-1.1230261 2.4540201 0 1.8104145 1.4732877 3.2837022 3.2837022 3.2837022 1.1011348 0 2.0720161-.5494728 2.6674607-1.3835332l9.3935775 2.6838793c.0842817 1.3331831.9599356 2.4452636 2.168338 2.8765231v8.0658672c-1.2707927.4531509-2.1891348 1.6571751-2.1891348 3.0823018 0 1.8104145 1.4732877 3.2837022 3.2837022 3.2837022s3.2837022-1.4732877 3.2837022-3.2837022c0-1.4251267-.918342-2.6291509-2.1891348-3.0823018v-8.0658672c1.2707928-.4531509 2.1891348-1.657175 2.1891348-3.0823018 0-1.0485956-.503501-1.9745996-1.2718873-2.5755171l1.3069135-3.9207404 9.8215533 3.2738511c.0262696 1.3977625.9303823 2.5733279 2.1825674 3.0199114v11.3495695c-1.2707927.4531509-2.1891348 1.657175-2.1891348 3.0823018 0 1.8104144 1.4732877 3.2837022 3.2837022 3.2837022s3.2837022-1.4732878 3.2837022-3.2837022c0-1.4251268-.918342-2.6291509-2.1891348-3.0823018v-11.3484749c1.2707928-.4531509 2.1891348-1.657175 2.1891348-3.0823018 0-.3995171-.0820925-.7782374-.2134406-1.1328773l8.3986157-6.998664c.4903662.291155 1.0562575.4695695 1.6670261.4695695 1.8104145 0 3.2837023-1.4732878 3.2837023-3.2837023 0-1.4251267-.9183421-2.6291509-2.1891349-3.0823018zm-47.0729657 1.9264387c-.0021892-.1313481-.0218914-.2572234-.0394045-.3841932l8.9787364-4.6551952 2.7769176 8.9458994zm-2.4430745-3.1020041-1.5170704-11.6330623 7.5010704-.3754367c.4761368 1.1536741 1.591501 1.9702214 2.9027928 2.0227606l1.8377786 5.9227042-9.3224305 4.8336097c-.3918552-.364491-.8701811-.6293763-1.4021409-.7705755zm-9.84016096-13.4084507c-.06895774-.1674688-.1576177-.3250865-.25284507-.4772313l4.90475653-6.1306721c.1269698.0437827.2517505.0908491.3841932.1193079l.8088853 6.196346zm7.20553726-6.7841287c1.0639195-.544 1.8005633-1.639662 1.8005633-2.91373846 0-.13572636-.0240804-.26597988-.0404989-.39732797l5.4290543-2.71452717c.5910664.56808049 1.3901006.92272033 2.2734165.92272033.6720644 0 1.2970624-.20468411 1.8180764-.55275654l6.7972636 5.09740041-4.921175 4.5928048c-.4531509-.2342374-.9599356-.3809094-1.5050302-.3809094-1.4820443 0-2.7232837.9927726-3.1304628 2.3445633l-7.6882414.3841932zm25.0634044-7.0763783-5.3600966 5.00217303-6.958165-5.21780281h12.2427364c.0262697.07224145.0448773.14557746.0755252.21562978zm3.0516539 15.5548974-8.8079839 4.5676298-4.701167-4.701167c.2046841-.4290705.3294648-.9019236.3294648-1.4076137 0-.4662857-.1007002-.9073964-.275831-1.3091026l5.197006-4.8511228 8.3767244 6.2828169c-.0963219.308668-.1630905.6315654-.1630905.9719759 0 .1532394.025175.2988169.0448772.4465835zm-15.3688209-1.5411509c0 .6031066-.4903662 1.0945674-1.0945674 1.0945674s-1.0945674-.4914608-1.0945674-1.0945674c0-.6031067.4903662-1.0945674 1.0945674-1.0945674s1.0945674.4914607 1.0945674 1.0945674zm4.5227525 7.1650382-1.9362897 1.0037183-1.323332-4.26334zm-1.2773602 3.1282736 2.9006037-1.5039356 5.1280483 5.1280483c-.2035896.4279759-.3283703.900829-.3283703 1.4065191 0 1.0496902.503501 1.9745996 1.2718874 2.5755171l-1.525827 4.5774809-4.0871147-1.3627364zm10.9839839 6.1251992c-.6042012 0-1.0945674-.4914607-1.0945674-1.0945674 0-.6031066.4903662-1.0945674 1.0945674-1.0945674.6042013 0 1.0945675.4914608 1.0945675 1.0945674 0 .6031067-.4903662 1.0945674-1.0945675 1.0945674zm0-4.3782696c-.5056901 0-.9785432.1236861-1.4065191.3294648l-4.6376821-4.6376821 8.1873642-4.2458269c.5866882.5494728 1.3693038.8920724 2.2351067.8920724.6107686 0 1.1766599-.1784145 1.6670261-.470664l4.9835654 4.1527887-8.8473883 4.8259477c-.5823099-.5199195-1.3408451-.8461006-2.1814729-.8461006zm13.7674689-17.9235412c.4651911.2539396.9905835.4104628 1.5564748.4104628.3765312 0 .7322656-.0766198 1.0693924-.1937385l4.9047565 6.1317666c-.3119517.5024065-.5013119 1.0890946-.5013119 1.7239437 0 .1762253.0251751.3469779.0525393.5155412l-7.752821 4.2294085-5.6479678-4.7066399c.1313481-.3546398.2134407-.7333601.2134407-1.1328772 0-.445489-.0908491-.8690865-.2517505-1.2565634zm8.6470825 20.5822454-7.509827-6.2587364 6.9953803-3.8156619c.3141408.2823983.6808209.5013118 1.0869054.6457947v9.1604346c-.2014004.0722415-.3918551.1609014-.5724587.268169zm-16.9417143-13.6043782c0 .6031066-.4903662 1.0945674-1.0945674 1.0945674s-1.0945674-.4914608-1.0945674-1.0945674c0-.6031067.4903662-1.0945674 1.0945674-1.0945674s1.0945674.4914607 1.0945674 1.0945674zm7.3642495 8.4741408 7.84367 6.5367566-16.9942535-1.5455292zm12.3379637-7.3795734c0 .6031066-.4903661 1.0945674-1.0945674 1.0945674-.6042012 0-1.0945674-.4914608-1.0945674-1.0945674 0-.6031067.4903662-1.0945674 1.0945674-1.0945674.6042013 0 1.0945674.4914607 1.0945674 1.0945674zm-9.8511066-12.04024146c.6042012 0 1.0945674.49146076 1.0945674 1.0945674 0 .60310666-.4903662 1.09456736-1.0945674 1.09456736s-1.0945674-.4914607-1.0945674-1.09456736c0-.60310664.4903662-1.0945674 1.0945674-1.0945674zm-3.2541489.79793963c-.0087565.09960564-.0295533.194833-.0295533.29662777 0 .44548896.0908491.86908656.2517505 1.25656336l-6.3583421 5.7213038c-.4640965-.2539396-.9894889-.4104627-1.5553802-.4104627-.6720644 0-1.2970624.2046841-1.8180765.5527565l-8.053827-6.0409175 5.0842656-4.7449497c.4520564.23642656.9588411.38200403 1.5039357.38200403.9205311 0 1.7513078-.38309859 2.347847-.99496177zm-10.9752273-7.36534406c.6042012 0 1.0945674.49146076 1.0945674 1.0945674s-.4903662 1.09456741-1.0945674 1.09456741c-.6042013 0-1.0945675-.49146077-1.0945675-1.09456741s.4903662-1.0945674 1.0945675-1.0945674zm-18.6076459 0c.6042012 0 1.0945674.49146076 1.0945674 1.0945674s-.4903662 1.09456741-1.0945674 1.09456741-1.0945674-.49146077-1.0945674-1.09456741.4903662-1.0945674 1.0945674-1.0945674zm-10.9456741 5.47283702c.6042012 0 1.0945674.49146077 1.0945674 1.09456741s-.4903662 1.0945674-1.0945674 1.0945674-1.0945674-.49146076-1.0945674-1.0945674.4903662-1.09456741 1.0945674-1.09456741zm-8.7565392 10.94567407c.6042012 0 1.0945674.4914607 1.0945674 1.0945674 0 .6031066-.4903662 1.0945674-1.0945674 1.0945674-.60420121 0-1.09456741-.4914608-1.09456741-1.0945674 0-.6031067.4903662-1.0945674 1.09456741-1.0945674zm0 15.3239436c-.60420121 0-1.09456741-.4914607-1.09456741-1.0945674 0-.6031066.4903662-1.0945674 1.09456741-1.0945674.6042012 0 1.0945674.4914608 1.0945674 1.0945674 0 .6031067-.4903662 1.0945674-1.0945674 1.0945674zm1.0945674-4.1768692v-6.9712998c.97854326-.349167 1.73488934-1.1427283 2.03589537-2.143163l6.03325553-.3021006 1.525827 11.7009256c-.6282817.2845875-1.1416338.764008-1.4842334 1.3572636l-5.97414893-1.0847163c-.19373843-1.1908894-1.02560965-2.1606761-2.13659557-2.5569095zm9.8511066 5.2714366c0-.6031066.4903662-1.0945674 1.0945674-1.0945674.6042013 0 1.0945675.4914608 1.0945675 1.0945674 0 .6031067-.4903662 1.0945674-1.0945675 1.0945674-.6042012 0-1.0945674-.4914607-1.0945674-1.0945674zm3.2552435 2.4529256c.1521449-.1335372.2900604-.2813038.414841-.4411107l13.2169015 4.4056338 1.9516136 6.2861006c-.2714527.2035896-.5122575.4432998-.7092796.7191308l-9.3935775-2.6838793c-.1083622-1.7119034-1.5225433-3.0768289-3.2629054-3.0768289-.0437827 0-.0853763.0109456-.1280644.0131348zm2.2175936 9.5873159c-.6042012 0-1.0945674-.4914608-1.0945674-1.0945674 0-.6031067.4903662-1.0945674 1.0945674-1.0945674s1.0945674.4914607 1.0945674 1.0945674c0 .6031066-.4903662 1.0945674-1.0945674 1.0945674zm15.3239436 18.6076459c-.6042012 0-1.0945674-.4914608-1.0945674-1.0945674 0-.6031067.4903662-1.0945674 1.0945674-1.0945674s1.0945674.4914607 1.0945674 1.0945674c0 .6031066-.4903662 1.0945674-1.0945674 1.0945674zm0-14.2293763c-.6042012 0-1.0945674-.4914608-1.0945674-1.0945674s.4903662-1.0945674 1.0945674-1.0945674 1.0945674.4914608 1.0945674 1.0945674-.4903662 1.0945674-1.0945674 1.0945674zm.0372153-4.6672354-1.3911952-4.481159 2.5963139.8658029zm5.4969175-9.5687083c1.2937787-.0240804 2.4014809-.7990342 2.9137385-1.9078309l17.9355814 1.6309054c.0284588.1094567.0612958.2167243.0996057.3218028l-8.3986157 6.998664c-.4903662-.2911549-1.055163-.4695694-1.6659316-.4695694-1.0485956 0-1.9745996.503501-2.5755171 1.2718873l-9.8314044-3.2771348zm10.8843783 28.46532c-.6042012 0-1.0945674-.4914608-1.0945674-1.0945674 0-.6031067.4903662-1.0945674 1.0945674-1.0945674s1.0945674.4914607 1.0945674 1.0945674c0 .6031066-.4903662 1.0945674-1.0945674 1.0945674zm0-17.5130785c-.6042012 0-1.0945674-.4914608-1.0945674-1.0945674s.4903662-1.0945674 1.0945674-1.0945674 1.0945674.4914608 1.0945674 1.0945674-.4903662 1.0945674-1.0945674 1.0945674zm13.1348088-10.945674c-.6042012 0-1.0945674-.4914608-1.0945674-1.0945675 0-.6031066.4903662-1.0945674 1.0945674-1.0945674.6042013 0 1.0945674.4914608 1.0945674 1.0945674 0 .6031067-.4903661 1.0945675-1.0945674 1.0945675z" fill="#31445c" fill-rule="nonzero"/><g fill="#50e3c2"><path d="m2.189682 0h2.189135v2.189135h-2.189135z"/><path d="m2.189682 4.37827h2.189135v2.189135h-2.189135z"/><path d="m4.378817 2.189135h2.189135v2.189135h-2.189135z"/><path d="m.000547 2.189135h2.189135v2.189135h-2.189135z"/><path d="m56.918052 50.350101h2.189135v2.189135h-2.189135z"/><path d="m56.918052 54.72837h2.189135v2.189135h-2.189135z"/><path d="m59.107187 52.539235h2.189135v2.189135h-2.189135z"/><path d="m54.728918 52.539235h2.189135v2.189135h-2.189135z"/><path d="m63.485457 4.37827h2.189135v2.189135h-2.189135z"/><path d="m63.485457 8.756539h2.189135v2.189135h-2.189135z"/><path d="m65.674592 6.567404h2.189135v2.189135h-2.189135z"/><path d="m61.296322 6.567404h2.189135v2.189135h-2.189135z"/><path d="m13.135356 52.539235h2.189135v2.189135h-2.189135z"/><path d="m13.135356 56.917505h2.189135v2.189135h-2.189135z"/><path d="m15.324491 54.72837h2.189135v2.189135h-2.189135z"/><path d="m10.946221 54.72837h2.189135v2.189135h-2.189135z"/><path d="m6.567952 40.498994h2.189135v2.189135h-2.189135z"/><path d="m6.567952 44.877264h2.189135v2.189135h-2.189135z"/><path d="m8.757087 42.688129h2.189135v2.189135h-2.189135z"/><path d="m4.378817 42.688129h2.189135v2.189135h-2.189135z"/></g></g></svg>