<svg height="60" viewBox="0 0 60 60" width="60" xmlns="http://www.w3.org/2000/svg"><g fill="none" fill-rule="evenodd"><g fill="#2291ff"><circle cx="52" cy="8" r="5"/><circle cx="52" cy="30" r="5"/><circle cx="52" cy="52" r="5"/><circle cx="8" cy="52" r="5"/><circle cx="8" cy="30" r="5"/><circle cx="8" cy="8" r="5"/></g><path d="m33.8843028 20.9810509c3.3991684.2567152 6.0279418 3.0869439 6.0334304 6.4959667v8.4482744.000499c0 .5509771-.4469439.9975468-.997921.997422h-2.993763v12.972973.000499c-.0001247.5509771-.4469439.997422-.997921.997422h-9.97921c-.0001247 0-.0003742 0-.0004989 0-.5509772 0-.9975468-.4469438-.9974221-.997921v-12.972973h-2.993763c-.0001247 0-.0003742 0-.0004989 0-.5509772-.0001247-.9974221-.4469438-.9974221-.997921v-8.4482744c.0054886-3.4090228 2.6341372-6.2391268 6.0334304-6.4959667-.6725988-.8628275-1.039709-1.9244907-1.0438254-3.0184616 0-2.755634 2.2339709-4.9896049 4.989605-4.9896049s4.989605 2.2339709 4.989605 4.9896049c-.0041164 1.0939709-.3712266 2.1556341-1.0438254 3.0184616zm-3.9457796-6.0122245c-1.6526819.0017463-2.9920166 1.341081-2.993763 2.9937629 0 1.6534304 1.3403327 2.993763 2.993763 2.993763 1.6534304 0 2.993763-1.3403326 2.993763-2.993763 0-1.6534303-1.3403326-2.9937629-2.993763-2.9937629zm7.983368 19.9584199v-7.4503534c-.0029938-2.4976715-2.027027-4.5218295-4.5248233-4.5246986h-6.9172141c-2.4976716.0028691-4.5218296 2.0269023-4.5246986 4.5246986v7.4503534h1.995842v-8.981289h1.995842v22.952183h2.993763v-12.972973h1.995842v12.972973h2.993763v-22.952183h1.995842v8.981289zm18.8674428-33.25160082c3.4811227 2.7018711 4.1129314 7.71405405 1.4110603 11.19505202-2.7017464 3.4811226-7.7139293 4.1128066-11.195052 1.4110602l-6.382079 6.382079-1.4110603-1.4110602 6.382079-6.382079c-1.0947193-1.4038254-1.6878586-3.1338462-1.6848648-4.91413726.0073596-4.40170478 3.5816632-7.96390852 7.983368-7.95656024 1.7730561-.00098654 3.4959667.58853529 4.8965488 1.67564548zm-4.8965488 9.30149692c.5508524-.000499.9972973-.4470686.997921-.99792104 0-.55696465-.1696466-.69392931-1.2961747-1.0451975-1.0076507-.31422038-2.6955093-.84-2.6955093-2.94648649.0038669-1.26449064.8032016-2.38977131 1.995842-2.80989605v-1.09172557c-2.5145115.42224532-4.4847817 2.39251559-4.9070271 4.90702703-.5469854 3.25708942 1.6499377 6.34079002 4.9070271 6.88777542v-1.0917255c-1.1926404-.42-1.9919751-1.5452807-1.995842-2.80977134h1.995842c.0004989.55085244.4470686.99742204.997921.99792104zm5.904948-2.00345118c.5469854-3.25696466-1.6500624-6.34079002-4.907027-6.88790021v1.09172557c1.192765.42012474 1.991975 1.54540541 1.995842 2.80989605h-1.995842c0-.55110187-.4468192-.997921-.997921-.997921-.5511019 0-.997921.44681913-.997921.997921 0 .5545946.1695218.69093555 1.2941788 1.04133056 1.0086486.31471934 2.6975052.84099792 2.6975052 2.95035343-.003867 1.26449068-.803077 2.38977128-1.995842 2.80989608v1.0917255c2.5145114-.4222453 4.4847817-2.3925155 4.907027-4.90702698zm2.0153014 19.95979208c.552973 4.3725156-2.5435758 8.3653223-6.9160914 8.9181705-4.3726404.5528482-8.365447-2.5435759-8.9182953-6.9160915h-2.0651975v-1.995842h2.0651975c.505447-3.9875675 3.8945115-6.9789605 7.9140125-6.9854475 4.0214969-.0014963 7.4159252 2.9895224 7.9203742 6.9792105zm-7.9202494 3.997921c.5508524-.0004989.9972973-.4470686.997921-.997921 0-.5569646-.1696466-.6939293-1.2961747-1.0451975-1.0076507-.3142204-2.6955093-.84-2.6955093-2.9464865.0038669-1.2644906.8032016-2.3897713 1.995842-2.809896v-1.0917256c-2.5145115.4222453-4.4847817 2.3925156-4.9070271 4.907027-.5469854 3.2570894 1.6499377 6.3407901 4.9070271 6.8877755v-1.0917256c-1.1926404-.42-1.9919751-1.5452806-1.995842-2.8097713h1.995842c.0004989.5508524.4470686.9974221.997921.997921zm5.904948-2.0034511c.5469854-3.2569647-1.6500624-6.34079-4.907027-6.8877755v1.0916008c1.192765.4201248 1.991975 1.5454054 1.995842 2.8098961h-1.995842c0-.5511019-.4468192-.997921-.997921-.997921-.5511019 0-.997921.4468191-.997921.997921 0 .5545946.1695218.6909355 1.2941788 1.0413305 1.0086486.3147194 2.6975052.840998 2.6975052 2.9503535-.003867 1.2644906-.803077 2.3897713-1.995842 2.809896v1.0917256c2.5145114-.4222453 4.4847817-2.3925156 4.907027-4.907027zm-41.8994595-1.9882329h2.0651975v1.995842h-2.0651975c-.505447 3.9875676-3.8945114 6.9789605-7.91401245 6.9854476-4.02149688.0014963-7.41592515-2.9895224-7.92037422-6.9792106-.55284823-4.3725156 2.54357588-8.3653222 6.91609148-8.9181705 4.37264029-.5528482 8.36544699 2.5435759 8.91829519 6.9160915zm-7.91401245 3.991684c.55110187 0 .997921-.4468191.997921-.997921 0-.5569646-.16964657-.6939293-1.29617464-1.0451975-1.00765072-.3142204-2.69550935-.84-2.69550935-2.9464865.00386694-1.2644906.80320166-2.3897713 1.99584199-2.809896v-1.0917256c-2.51451143.4222453-4.4847817 2.3925156-4.90702702 4.907027-.54698545 3.2570894 1.64993763 6.3407901 4.90702702 6.8877755v-1.0917256c-1.19264033-.42-1.99197505-1.5452806-1.99584199-2.8097713h1.99584199c0 .5511019.44681913.997921.997921.997921zm5.90494805-2.0034511c.5469854-3.2569647-1.6500624-6.34079-4.90702705-6.8877755v1.0916008c1.19264035.4201248 1.99197505 1.5454054 1.99584195 2.8098961h-1.99584195c-.00049896-.5508524-.44706861-.9974221-.997921-.997921-.55085239.0004989-.99742204.4470686-.997921.997921 0 .5545946.16952183.6909355 1.2941788 1.0413305 1.00864865.3147194 2.69750515.840998 2.69750515 2.9503535-.0038669 1.2644906-.8032016 2.3897713-1.99584195 2.809896v1.0917256c2.51451145-.4222453 4.48478175-2.3925156 4.90702705-4.907027zm41.7101039 13.891684c3.9037422 2.0448648 5.4107277 6.8671933 3.3656133 10.7709355-2.0448648 3.903867-6.8673181 5.4107277-10.7710603 3.3658628s-5.4106029-6.8673181-3.365738-10.7710603l-6.6597505-7.6112682 1.5027443-1.3146362 6.3434095 7.2495219c1.5063618-1.655052 3.6402911-2.5990853 5.8782537-2.6004574 1.2910603-.0006237 2.5629106.3120998 3.706528.9111019zm-3.706528 10.0660291c.5508524-.000499.9972973-.4470686.997921-.997921 0-.5569647-.1696466-.6939293-1.2961747-1.0451975-1.0076507-.3142204-2.6955093-.84-2.6955093-2.9464865.0038669-1.2644907.8032016-2.3897713 1.995842-2.8098961v-1.0917255c-2.5145115.4222453-4.4847817 2.3925156-4.9070271 4.907027-.5469854 3.2570894 1.6499377 6.34079 4.9070271 6.8877755v-1.0917256c-1.1926404-.42-1.9919751-1.5452807-1.995842-2.8097713h1.995842c.0004989.5508524.4470686.997422.997921.997921zm5.904948-2.0034512c.5469854-3.2569646-1.6500624-6.34079-4.907027-6.8879002v1.0917256c1.192765.4201247 1.991975 1.5454054 1.995842 2.809896h-1.995842c0-.5511018-.4468192-.997921-.997921-.997921-.5511019 0-.997921.4468192-.997921.997921 0 .5545946.1695218.6909356 1.2941788 1.0413306 1.0086486.3147193 2.6975052.8409979 2.6975052 2.9503534-.003867 1.2644907-.803077 2.3897713-1.995842 2.8098961v1.0917256c2.5145114-.4222454 4.4847817-2.3925156 4.907027-4.9070271zm-36.1837422-12.214553-7.2958004 6.3839501c1.072765 1.3962162 1.6528066 3.1085239 1.6495634 4.8692308-.0079834 4.4010811-3.5822869 7.9624116-7.98336801 7.9544417-1.79214137.0008597-3.53239085-.6015103-4.94045738-1.7102006-3.46241164-2.7261954-4.0591684-7.7431185-1.33284823-11.2054054 2.72619542-3.4624116 7.7431185-4.0590436 11.20540542-1.3328482l7.3838669-6.4609148zm-13.62972975 14.2180042c.55110187 0 .997921-.4468192.997921-.997921 0-.5569647-.16964657-.6939293-1.29617464-1.0451975-1.00765072-.3142204-2.69550935-.84-2.69550935-2.9464865.00386694-1.2644907.80320166-2.3897713 1.99584199-2.8098961v-1.0917255c-2.51451143.4222453-4.4847817 2.3925156-4.90702702 4.907027-.54698545 3.2570894 1.64993763 6.34079 4.90702702 6.8877755v-1.0917256c-1.19264033-.42-1.99197505-1.5452807-1.99584199-2.8097713h1.99584199c0 .5511018.44681913.997921.997921.997921zm5.90494805-2.0034512c.5469854-3.2569646-1.6500624-6.34079-4.90702705-6.8879002v1.0917256c1.19264035.4201247 1.99197505 1.5454054 1.99584195 2.809896h-1.99584195c-.00049896-.5508524-.44706861-.997422-.997921-.997921-.55085239.000499-.99742204.4470686-.997921.997921 0 .5545946.16952183.6909356 1.2941788 1.0413306 1.00864865.3147193 2.69750515.8409979 2.69750515 2.9503534-.0038669 1.2644907-.8032016 2.3897713-1.99584195 2.8098961v1.0917256c2.51451145-.4222454 4.48478175-2.3925156 4.90702705-4.9070271zm.3488981-39.9517671 6.2630769 7.1595842-1.5027443 1.3136382-6.189106-7.0750104c-1.3844906 1.061788-3.08033262 1.6375884-4.82507275 1.6380874-1.79476091.0017463-3.53787942-.6018712-4.94706861-1.7134304-3.45841995-2.7276923-4.05056133-7.74249481-1.32286902-11.20091476 2.72769231-3.45841996 7.74261954-4.05068608 11.20091478-1.32286903 3.4584199 2.72769231 4.0506861 7.74249481 1.322869 11.20091479zm-6.25384615-1.9533056c.55110187 0 .997921-.4468192.997921-.99792104 0-.55696465-.16964657-.69392931-1.29617464-1.0451975-1.00765072-.31422038-2.69550935-.84-2.69550935-2.94648649.00386694-1.26449064.80320166-2.38977131 1.99584199-2.80989605v-1.09172557c-2.51451143.42224532-4.4847817 2.39251559-4.90702702 4.90702703-.54698545 3.25708942 1.64993763 6.34079002 4.90702702 6.88777542v-1.0917255c-1.19264033-.42-1.99197505-1.5452807-1.99584199-2.80977134h1.99584199c0 .55110184.44681913.99792104.997921.99792104zm5.90494805-2.00345118c.5469854-3.25696466-1.6500624-6.34079002-4.90702705-6.88790021v1.09172557c1.19264035.42012474 1.99197505 1.54540541 1.99584195 2.80989605h-1.99584195c-.00049896-.55085239-.44706861-.99742204-.997921-.997921-.55085239.00049896-.99742204.44706861-.997921.997921 0 .5545946.16952183.69093555 1.2941788 1.04133056 1.00864865.31471934 2.69750515.84099792 2.69750515 2.95035343-.0038669 1.26449068-.8032016 2.38977128-1.99584195 2.80989608v1.0917255c2.51451145-.4222453 4.48478175-2.3925155 4.90702705-4.90702698z" fill="#103e6b" fill-rule="nonzero"/></g></svg>