<svg height="40" viewBox="0 0 27 40" width="27" xmlns="http://www.w3.org/2000/svg" xmlns:xlink="http://www.w3.org/1999/xlink"><filter id="a" height="104.1%" width="107%" x="-3.5%" y="-2.1%"><feOffset dx="0" dy="0" in="SourceAlpha" result="shadowOffsetOuter1"/><feGaussianBlur in="shadowOffsetOuter1" result="shadowBlurOuter1" stdDeviation="3.5"/><feColorMatrix in="shadowBlurOuter1" result="shadowMatrixOuter1" type="matrix" values="0 0 0 0 0.80689538 0 0 0 0 0.80689538 0 0 0 0 0.80689538 0 0 0 0.5 0"/><feMerge><feMergeNode in="shadowMatrixOuter1"/><feMergeNode in="SourceGraphic"/></feMerge></filter><g fill="#fff" filter="url(#a)" transform="translate(-12 -54)"><path d="m31.9057229 76.8289306c-.1209199-.4252048-.2676289-.7952707-.4399312-1.109537-.1722044-.3145712-.4188399-.621418-.7403958-.9215565-.3211644-.2999862-.6100803-.541581-.8662582-.7252418-.2560311-.1838133-.6077314-.3893264-1.054905-.6167934-.4467821-.2274162-.8007824-.3966444-1.0613645-.5079386-.2609247-.1111417-.6383651-.2634978-1.1320765-.4569668-.437729-.1740052-.7636402-.30705-.978076-.3988804-.2141912-.0919321-.4958646-.2224359-.845167-.3918165-.3491556-.1691266-.6099824-.319145-.7823336-.4496489-.1723023-.1305039-.3562024-.2900764-.551847-.4786667-.1956445-.1885902-.3330068-.3893263-.4122336-.6021066-.079031-.2128311-.1186688-.4450243-.1186688-.6965289 0-.6576012.2793245-1.1946084.8381692-1.6104117.5588936-.4158032 1.2808407-.6238064 2.1657434-.6238064.3909955 0 .789625.0555454 1.1945183.1668904.4048932.111345.7518957.236767 1.0406647.3771298.2890137.1403628.5613404.2951583.8175673.4643356.2561779.1693298.437729.2973944.544947.3844478.10712.0871042.1749937.145089.2026423.1741576.1212625.0967091.2466845.1305039.3770979.1015877.1396622-.0096557.2468801-.087155.3215559-.2320916l1.1318807-2.1183502c.11172-.1933673.0886224-.3771806-.0698311-.5513891-.0559824-.0580356-.1255688-.125676-.2099827-.2031246-.0835821-.0774485-.26528-.2176589-.544947-.4208851-.2793734-.2030738-.5750913-.3844478-.8869091-.5440711-.3121602-.1594708-.717445-.3215843-1.2158053-.4859338-.4980666-.1646036-1.0128203-.2757453-1.5438696-.3337301v-2.5537189c0-.1353317-.0418399-.2466259-.125422-.3337301-.0837777-.086901-.1909467-.1305547-.3215559-.1305547h-1.8862721c-.1210667 0-.2258379.0458898-.3143134.1378218-.0884756.0919321-.1327134.2006853-.1327134.326463v2.6116529c-1.4623919.2900763-2.6499613.9381744-3.5627573 1.9441418-.9126981 1.0060181-1.3692184 2.1762334-1.3692184 3.5112046 0 .3965428.0397357.7737742.1189135 1.131491.07908.3580217.1769512.6796568.2934179.9649562.1163689.2855026.2817713.5659233.4959625.8416687.2141911.2756437.4168335.5126647.6077313.7108598.1909957.1981444.4401759.4037591.7474426.6164885.3074624.2129328.5705892.3847527.7895272.5152566.2189868.1300973.5100069.2805223.8731581.4493947.363249.1693807.6497671.2973944.8593583.3846511.2095912.0869517.4959624.2080032.8593583.362443.5029113.2031246.875556.3603594 1.1176894.4716536.2423291.1112941.5495958.2660388.9223873.4643356.372449.1980935.6447757.3795183.8172248.5440202.1723023.164502.3282601.3676266.4680691.6093738.139809.2417473.2098359.4980796.2098359.769048 0 .7641693-.2864201 1.3540793-.8594072 1.7696792-.5727424.4160574-1.236603.6240098-1.9909454.6240098-.344311 0-.6892092-.0384702-1.0337159-.1158171-1.2108628-.2518095-2.3424988-.8563554-3.395006-1.813892l-.0279422-.0290178c-.0838757-.1061107-.1956935-.1497136-.3352579-.1302498-.1490579.0193113-.2562269.0773977-.3213602.1743101l-1.4390985 1.9585744c-.1397601.1934182-.1303155.3916641.0279912.5947887.0466356.0580864.1281134.1453431.2444823.261211.1166625.1163253.3332515.2973944.6497671.5445285.3166134.2467783.6612669.4786158 1.0339116.6965288.3725958.2175573.8452159.4326752 1.4181541.6455571.5729381.2125262 1.166576.3623922 1.7813541.4493948v2.539083c0 .1259301.0442868.2346325.1327134.3266154.0885245.0920337.1932467.137771.3143134.137771h1.8862722c.1306091 0 .2377781-.0434505.3215069-.1304022.0837289-.0869518.125422-.198246.125422-.3339334v-2.539083c1.4812321-.2514537 2.6850971-.9116468 3.6117418-1.9805284.9267427-1.0688816 1.3902608-2.3432763 1.3902608-3.8230825-.0004894-.4835453-.0609248-.9381744-.183166-1.3640399z"/></g></svg>