<svg height="37" viewBox="0 0 37 37" width="37" xmlns="http://www.w3.org/2000/svg" xmlns:xlink="http://www.w3.org/1999/xlink"><filter id="a" height="104.1%" width="107%" x="-3.5%" y="-2.1%"><feOffset dx="0" dy="0" in="SourceAlpha" result="shadowOffsetOuter1"/><feGaussianBlur in="shadowOffsetOuter1" result="shadowBlurOuter1" stdDeviation="3.5"/><feColorMatrix in="shadowBlurOuter1" result="shadowMatrixOuter1" type="matrix" values="0 0 0 0 0.80689538 0 0 0 0 0.80689538 0 0 0 0 0.80689538 0 0 0 0.5 0"/><feMerge><feMergeNode in="shadowMatrixOuter1"/><feMergeNode in="SourceGraphic"/></feMerge></filter><g fill="#99abc3" filter="url(#a)" transform="translate(-188 -189)"><path d="m216.004613 205.446429h-7.001538c-.227445 0-.411855-.183899-.411855-.410715v-6.982143c0-1.134076-.922049-2.053571-2.059276-2.053571s-2.059275.919495-2.059275 2.053571v6.982143c0 .226816-.18441.410715-.411856.410715h-7.001537c-1.137227 0-2.059276.919494-2.059276 2.053571s.922049 2.053571 2.059276 2.053571h7.001537c.227446 0 .411856.183899.411856.410715v6.982143c0 1.134076.922048 2.053571 2.059275 2.053571s2.059276-.919495 2.059276-2.053571v-6.982143c0-.226816.18441-.410715.411855-.410715h7.001538c1.137227 0 2.059276-.919494 2.059276-2.053571s-.922049-2.053571-2.059276-2.053571z"/></g></svg>