<svg height="68" viewBox="0 0 60 68" width="60" xmlns="http://www.w3.org/2000/svg"><g fill="none" fill-rule="evenodd"><circle cx="30.5" cy="31.5" fill="#2291ff" r="12.5"/><path d="m30.7905235 37.1114552c1.3810787-.0501057 2.4676147-1.1960018 2.4419786-2.5755429-.0250907-1.3795412-1.1525355-2.4845902-2.5347052-2.4845902-2.3896155.0005447-4.4105069-1.7645928-4.7279588-4.1293649-.3174518-2.3647721 1.1661716-4.5993783 3.4712425-5.2278784v-1.0832638c0-.6159736.5001774-1.1153969 1.1170812-1.1153969.6169037 0 1.1170811.4994233 1.1170811 1.1153969v1.0151854c2.2085262.4651119 3.7897852 2.408887 3.793058 4.6625551 0 .6159736-.5001776 1.1153969-1.1170812 1.1153969-.6169038 0-1.1170812-.4994233-1.1170812-1.1153969 0-1.3986031-1.1356265-2.5325173-2.5363416-2.5325173-1.400715 0-2.5363416 1.1339142-2.5363416 2.5325173 0 1.3986032 1.1356266 2.5325175 2.5363416 2.5325175 2.4441605.0005446 4.4923245 1.8451976 4.7443224 4.2726018.2514523 2.4274043-1.3745335 4.6522073-3.7668764 5.1521752v1.0478631c0 .6159736-.5001774 1.1153969-1.1170811 1.1153969-.6169038 0-1.1170812-.4994233-1.1170812-1.1153969v-1.1153969c-2.0727092-.5680464-3.5105148-2.4481002-3.5137876-4.5944767 0-.6159736.5001776-1.1153969 1.1170812-1.1153969.6169037 0 1.1170811.4994233 1.1170811 1.1153969.002182 1.2853207.9670826 2.3658614 2.2461623 2.5145446.1276352-.0190619.2569069-.0141602.3829059.0130711zm-16.2914945-6.0894789c.0103636-8.9286214 7.256664-16.164541 16.1987679-16.1743442 8.9464675 0 16.1987679 7.2413658 16.1987679 16.1743442 0 8.9329785-7.2523004 16.1743443-16.1987679 16.1743443s-16.1987679-7.2413658-16.1987679-16.1743443zm16.1987679-13.9435504c-7.7088418.008714-13.9558784 6.2463315-13.9646056 13.9435504 0 7.7010314 6.2519456 13.9435505 13.9646056 13.9435505s13.9646056-6.2425191 13.9646056-13.9435505c0-7.7010313-6.2519456-13.9435504-13.9646056-13.9435504zm21.705629 32.8677185c2.6917946-1.3523098 5.9726751-.3540078 7.451935 2.2667392.2907247.5141282.1303625 1.164958-.3659969 1.4857435l-19.9247353 12.8684561c-.0441814.0288653-.0905446.0544627-.1385442.0762478-1.9532558.8953674-4.0772372 1.3577561-6.2263094 1.356669-1.0145366.0005425-2.0268914-.1034814-3.0201554-.3109844-.0245454-.0054462-.0485451-.0108926-.0725449-.0179727l-13.742062-3.8510603c-.9867186-.2788492-2.0427094-.1633882-2.9459742.3218748l-2.3012527 1.2303133-.0256362.9285897c-.0163634.6039917-.511632 1.0848978-1.11708119 1.0848978h-.03054519l-8.85810458-.2434485c-.61690375-.0168835-1.10289941-.5299224-1.08641874-1.145896l.53551438-19.409431c.01690898-.6159736.53017733-1.1012367 1.14708094-1.0843532l8.85810458.2434485c.6169038.0168833 1.1028996.5299224 1.0859906 1.145896l-.0512724 1.8593579c4.2043271-2.1992054 9.2208288-2.2046517 13.4295194-.0141603l.8219927.425354c1.1372629.5865636 2.3923429.9100724 3.6714226.9465625l8.0781115.2216632c2.5505232.0718908 4.8681393 1.4999039 6.0763106 3.7437688zm-50.13883562 14.9968599 6.62448766.1824501.47345042-17.1802711-6.62448766-.1819055zm36.15513932-.2919202 18.8376539-12.1675206c-1.0472636-.967803-2.5865228-1.1829308-3.8596027-.5397258-.0087272.004357-.0174544.0087141-.0261816.0125265l-8.9753762 4.2344779c.0856356.4770936.1216352.9623566.107999 1.447075-.0163634.6034471-.5110864 1.0843531-1.1159902 1.0848978h-.0310907l-13.2795206-.3649004c-.6163583-.0168835-1.1028995-.5299224-1.0859905-1.145896.0174544-.6154289.5307226-1.1012367 1.1476263-1.0843532l12.0331678.331678c-.4603596-2.2199011-2.3874337-3.8330875-4.6565048-3.8984428l-8.0786569-.2216634c-1.6161677-.0468379-3.2006993-.4553085-4.637414-1.1960017l-.8219929-.425354c-3.9686927-2.0646825-8.7479236-1.8103414-12.4744366.6644454l-.3147246 11.4224703 1.1759897-.6290446c1.4110786-.7575766 3.0621552-.9378483 4.6046872-.502691l13.7049713 3.8412569c2.608341.532101 5.318681.2303775 7.7453871-.8632343zm-6.6048515-52.9394166c0 .6159736-.5001774 1.1153969-1.1170812 1.1153969-.6169037 0-1.1170811-.4994233-1.1170811-1.1153969v-10.5962706c0-.61597361.5001774-1.1153969 1.1170811-1.1153969.6169038 0 1.1170812.49942329 1.1170812 1.1153969zm8.3781088 0c0 .6159736-.5001775 1.1153969-1.1170812 1.1153969-.6169038 0-1.1170812-.4994233-1.1170812-1.1153969v-5.01928609c0-.61597361.5001774-1.1153969 1.1170812-1.1153969.6169037 0 1.1170812.49942329 1.1170812 1.1153969zm-16.7562176 0c0 .6159736-.5001774 1.1153969-1.1170811 1.1153969-.6169038 0-1.1170812-.4994233-1.1170812-1.1153969v-5.01928609c0-.61597361.5001774-1.1153969 1.1170812-1.1153969.6169037 0 1.1170811.49942329 1.1170811 1.1153969z" fill="#103e6b" fill-rule="nonzero"/></g></svg>