<svg height="61" viewBox="0 0 60 61" width="60" xmlns="http://www.w3.org/2000/svg"><g fill="none" fill-rule="evenodd"><g fill="#2291ff"><path d="m6 28h4v22h-4z"/><path d="m27 28h4v22h-4z"/><path d="m48 28h4v22h-4z"/></g><path d="m1.12668244 16.850161c-.02225606.120552-.03480039.2427167-.03884689.3648813v2.5094162c.00323724 1.0341666.64785273 1.9586671 1.62023887 2.3219357v3.6923576c.00445123 1.2361616.98007451 2.2521848 2.21912836 2.3106464v21.331247c-1.23905385.0588649-2.21467713 1.0748881-2.21912836 2.3106465v3.6814716c-.97440939.372945-1.61862025 1.3042997-1.62023887 2.3437076v2.4545831c0 .4576137.37309192.828946.83237544.828946h56.12241991c.4592835 0 .8319708-.3713323.8319708-.828946v-2.4545831c-.0016186-1.0398111-.6458295-1.9711657-1.6198342-2.3437076v-3.7032436c-.0044512-1.2361615-.9804793-2.2521848-2.2191284-2.3106464v-21.3094751c1.2386491-.0584616 2.2146772-1.0744848 2.2191284-2.3106464v-3.6923576c.9719815-.3632686 1.616597-1.2877691 1.6198342-2.3219357v-2.4928855c-.0036419-.1221648-.0165908-.2443295-.0388469-.3648815.4184134.1846583.9076414-.0032255 1.0929733-.4201175.1853321-.4164889-.0032372-.9039381-.4212459-1.0889995l-29.1432576-15.26171749c-.2431976-.12780935-.53374-.12780935-.7769377 0l-29.14285295 15.24518689c-.40667831.2140906-.56247049.7152482-.34840798 1.1204479.19585305.3701228.63773638.5370409 1.03065647.3886692zm3.24573823 6.6331804v-1.2768831h9.59760873v1.2659971zm21.37023853 4.5717015v21.3256023c-1.2390539.0588649-2.2146771 1.0748881-2.2191284 2.3106465v3.526649h-7.9004854v-3.526649c-.0044512-1.2357584-.9800746-2.2517816-2.2191284-2.3106465v-21.331247c1.2390538-.0584616 2.2146772-1.0744848 2.2191284-2.3106464v-3.5322935h7.8891551v3.527052c.0020232 1.2381776.9784559 2.25662 2.219533 2.3158879zm-.5547821-4.5717015v-1.2768831h9.5980134v1.2659971zm21.3706431 4.5717015v21.3256023c-1.2390538.0588649-2.2150817 1.0748881-2.219533 2.3106465v3.526649h-7.9000808v-3.526649c-.0044512-1.2357584-.9804792-2.2517816-2.2191283-2.3106465v-21.331247c1.2386491-.0584616 2.2146771-1.0744848 2.2191283-2.3106464v-3.5322935h7.8891551v3.527052c.0016186 1.2381776.9780513 2.25662 2.2191284 2.3158879zm-.5547821-4.5717015v-1.2768831h9.5976088v1.2659971zm9.5976088 30.4690052v1.2655941h-9.6089391v-1.2655941zm-20.8154564 0v1.2655941h-9.6089391v-1.2655941zm-8.2221862-27.5447129h-.7210953c-.3678315 0-.6656576-.2967433-.6656576-.6632374v-.6027597h9.5976088v.6027597c0 .3664941-.2978261.6632374-.6656577.6632374zm5.9973926 1.6582951v21.3038304h-5.1650172v-21.3038304zm-5.9973926 22.9621256h7.5451982c.3678316 0 .6656577.2967433.6656577.6632373v.6027599h-9.5976088v-.6027599c0-.366494.2978261-.6632373.6656576-.6632373zm-12.6046005 2.9242922v1.2655941h-9.59801347v-1.2655941zm-9.59804041-28.1914197v-.6192903h9.59804041v.6027597c0 .3664941-.2978261.6632374-.6660623.6632374h-8.28288445c-.3633803-.00887-.65230397-.3068229-.64909366-.6688819zm7.37891201 2.3215325v21.2872998h-5.15975671v-21.3038304zm-7.37888507 23.625766c0-.3668972.29782612-.6636405.66565755-.6636405h8.26629362c.3682362 0 .6660623.2967433.6660623.6636405v.6023567h-9.59801347zm52.84916517 6.0417098v1.6248308h-54.46899942v-1.6248308c0-.4733379.38482699-.8571689.85989199-.8571689h52.74921543c.4681859 0 .8509895.3737514.859892.8402351zm-1.6198343-6.0417098v.6023567h-9.5980134v-.6023567c0-.3668972.2978261-.6636405.6656576-.6636405h8.2832891c.3548825.00887.6401643.2931146.6490667.6467068zm-7.3788851-2.3219356v-21.320361h5.1650173v21.3038304zm7.3788851-23.6253629c0 .3664941-.2978261.6632374-.6656575.6632374h-8.2610332c-.3678314 0-.6656575-.2967433-.6656575-.6632374v-.6192903h9.5976087zm-25.6146654-24.00677482 24.78229 12.97889072h-49.56458004zm-27.23449972 15.47742092c0-.4576137.37268739-.828946.83197081-.828946h52.80505781c.4592834 0 .8319708.3713323.8319708.828946v2.5098193c0 .4576137-.3726874.8289459-.8319708.8289459h-52.80505781c-.45928342 0-.83197081-.3713322-.83197081-.8289459z" fill="#103e6b" fill-rule="nonzero"/></g></svg>