<svg height="36" viewBox="0 0 33 36" width="33" xmlns="http://www.w3.org/2000/svg"><g fill="none" fill-rule="evenodd"><path d="m16.3683913 30.0000916h16.1584119c.273757 0 .4769802-.2573548.4175266-.5287171l-1.7479363-7.994751h-15.2366107l-.0191873 8.0878601c-.0005405.2406006.1910623.435608.4277958.435608z" fill="#fda400"/><path d="m32.9443298 29.4713745-1.7479363-7.9944763h-1.7106427l1.7479363 7.9944763c.0594536.2713623-.1437696.5289917-.4172563.5289917h1.7103724c.273757-.0002746.4769802-.2576294.4175266-.5289917z" fill="#fd7e00"/><path d="m19.380798 12.0135498v4.8273926h11.8334316l1.7301002-7.91235353c.0594536-.27136231-.1437696-.52871703-.4172563-.52871703h-12.4549922z" fill="#2b2b2b"/><path d="m32.5268032 8.39987184h-1.7103724c.2734867 0 .4767099.25735472.4172563.52871703l-1.72983 7.91235353h1.7103725l1.7301002-7.91235353c.0594536-.27136231-.1437696-.52871703-.4175266-.52871703z" fill="#1f1f1f"/><path d="m31.4858245 22.8002014h-12.1050265v-7.2001647h12.1047562l-.7664111 3.5057372c-.0137825.0620728-.0137825.1266175 0 .1886902z" fill="#d13838"/><path d="m30.7191431 19.1057739.7666814-3.5057372h-1.6995627l-.7664112 3.5057372c-.0135121.0620728-.0135121.1266175 0 .1886902l.7664112 3.5054627h1.6995627l-.7666814-3.5054627c-.0135122-.0620727-.0135122-.1266174 0-.1886902z" fill="#b83131"/><path d="m2.3 11.046h17.772v9.108h-17.772z" fill="#e24242"/><path d="m2.3 19.2h17.772v7.2h-17.772z" fill="#fdbf00"/><path d="m2.30031447 11.9998169h17.77176683v-6.7653809c0-.24005123-.1913324-.43450924-.4275255-.43450924h-17.34424133z" fill="#333"/><path d="m15.9481624 26.3998718-.0075669 3.1646118c-.0002702.1252442.0518868.2378541.1348516.3172303l3.9966342-3.4815674z" fill="#fd7e00"/><path d="m.59 2.354h2.362v33.646h-2.362z" fill="#d9e7ec"/><path d="m1.241 2.354h1.711v33.646h-1.711z" fill="#aad4ec"/><path d="m3.54208433 1.80010983c0 .99398805-.79289508 1.79983526-1.77090708 1.79983526-.97828217 0-1.77117725-.80584721-1.77117725-1.79983526 0-.99426263.79289508-1.80010983 1.77117725-1.80010983.978012 0 1.77090708.8058472 1.77090708 1.80010983z" fill="#d9e7ec"/><path d="m.59021226 8.94342037h2.36165981c.29510613 0 .53454202-.24334713.53454202-.54327389 0-.30020139-.23943589-.54327389-.53454202-.54327389h-2.36165981c-.29510613 0-.53454202.2430725-.53454202.54327389 0 .29992676.23943589.54327389.53454202.54327389z" fill="#1f1f1f"/><path d="m2.95187207 22.2566528h-2.36165981c-.29510613 0-.53454202.2430726-.53454202.543274 0 .2999267.23943589.5432739.53454202.5432739h2.36165981c.29510613 0 .53454202-.2433472.53454202-.5432739 0-.3002014-.23943589-.543274-.53454202-.543274z" fill="#fd7e00"/><g fill="#aad4ec" transform="translate(.9)"><path d="m.87180618 0c-.2537588 0-.49481619.054657-.71290288.15216061.62318203.27877809 1.0585446.91159059 1.0585446 1.64794922 0 .73635869-.43536257 1.36889648-1.0585446 1.64767458.21808669.09750368.45914408.15216068.71290288.15216068.978012 0 1.77090708-.80584721 1.77090708-1.79983526 0-.99426263-.79289508-1.80010983-1.77090708-1.80010983z"/><path d="m.87180618 0c-.31023972 0-.6018327.08129883-.85532133.22357181.5458923.3067932.91585592.89758294.91585592 1.57626338 0 .67895508-.36996362 1.26974489-.91585592 1.57626344.25348863.14254763.54508161.22384646.85532133.22384646.978012 0 1.77090708-.80584721 1.77090708-1.8001099 0-.99398799-.79289508-1.79983519-1.77090708-1.79983519z"/></g></g></svg>