<svg height="57" viewBox="0 0 57 57" width="57" xmlns="http://www.w3.org/2000/svg" xmlns:xlink="http://www.w3.org/1999/xlink"><filter id="a" height="119.9%" width="108.8%" x="-4.4%" y="-9.9%"><feOffset dx="0" dy="0" in="SourceAlpha" result="shadowOffsetOuter1"/><feGaussianBlur in="shadowOffsetOuter1" result="shadowBlurOuter1" stdDeviation="4.5"/><feColorMatrix in="shadowBlurOuter1" result="shadowMatrixOuter1" type="matrix" values="0 0 0 0 0.80689538   0 0 0 0 0.80689538   0 0 0 0 0.80689538  0 0 0 0.5 0"/><feMerge><feMergeNode in="shadowMatrixOuter1"/><feMergeNode in="SourceGraphic"/></feMerge></filter><g fill="#fff" filter="url(#a)" transform="translate(-5 -49)"><g transform="translate(14.339722 58)"><path d="m37.2221435 23.6944426h-10.1046831c-.9194911-.0002705-1.786294-.4260122-2.3442865-1.1514272l-3.8680727-4.8544494c-.5046404-.5047043-1.191382-.788566-1.9077642-.788566-.7163821 0-1.4031238.2838617-1.9077642.788566l-3.8519052 4.8504374c-.558428.7275552-1.4268589 1.154846-2.3483283 1.1554392h-10.31486057c-.17650909-.000161-.34327605.0803021-.45218774.2181754-.1089117.1378732-.1478536.3178206-.10559077.4879264 2.06943911 8.384958 9.90663135 14.5994556 18.99680428 14.5994556 8.896623 0 16.6451883-6.0253726 18.7745013-14.5994556.0426262-.171483.0027095-.3528921-.1080643-.4911194-.1107739-.1382273-.2798748-.2176373-.457798-.2149824z"/><path d="m22.760001 15.1684861 4.1755129 5.1343774c.2568858.3141612.6458276.4971365 1.0570919.4971365h10.4936696c.3021741.0008834.5539282-.2263027.5773348-.5209988.0284602-.3977055.0447231-.8351815.0447231-1.2567493-.0022445-10.50479005-8.7073907-19.02005631-19.4464246-19.0222519-10.7376139 0-19.6619087 8.51885085-19.6619087 19.0222519 0 .4215678 0 .8431356.04472312 1.2567493.02137405.2940712.27188246.5217364.57326905.5209988h10.72948243c.410385.0010701.7985631-.1821881 1.0530261-.4971365l4.1795787-5.1343774c.8119897-.8153575 1.9262965-1.2752349 3.0899608-1.2752349s2.2779711.4598774 3.0899608 1.2752349z" opacity=".5"/></g></g></svg>