<svg height="34" viewBox="0 0 103 34" width="103" xmlns="http://www.w3.org/2000/svg"><g fill="#182b44"><g transform="translate(0 3.086154)"><path d="m28.3692304 18.3296439h-7.5602895c-.6879601-.0002108-1.3364991-.3320229-1.7539872-.8973927l-2.8940788-3.7834329c-.3775702-.3933536-.891388-.6145881-1.4273827-.6145881-.5359946 0-1.0498124.2212345-1.4273826.6145881l-2.8819824 3.7803061c-.4178139.5670377-1.06757103.9000572-1.75701128.9005195h-7.71754355c-.13206351-.0001255-.25683798.0625854-.33832534.1700403-.08148736.1074548-.11062355.2477012-.07900265.3802772 1.5483473 6.5350205 7.41210786 11.37844 14.21334432 11.37844 6.656423 0 12.4538732-4.6960204 14.047018-11.37844.0318928-.1336493.0020272-.2750349-.0808534-.3827658-.0828806-.1077308-.2094014-.1696208-.3425229-.1675517z"/><path d="m17.0318203 12.4168575 3.1057669 4.036704c.1910729.246997.4803697.3908542.7862701.3908542h7.8052429c.2247586.0006945.4120145-.1779216.4294245-.409615.0211688-.3126804.0332652-.6566289.0332652-.9880701-.0016695-8.25898153-6.4765999-14.95377755-14.4643459-14.95550375-7.98668985 0-14.62462406 6.69761427-14.62462406 14.95550375 0 .3314412 0 .6628825.03326527.9880701.01589812.231202.20222751.4101949.42640033.409615h7.98064163c.30524633.0008413.59397513-.1432383.783246-.3908542l3.10879103-4.036704c.603962-.6410431 1.4327889-1.0026037 2.298328-1.0026037.8655392 0 1.6943661.3615606 2.2983281 1.0026037z" opacity=".5"/></g><path d="m56.19655 9.41252813h4.7719147c.2019031 0 .365578.16367484.365578.365578v22.44301967c0 .2019032-.1636749.365578-.365578.365578h-4.7719147c-.2019031 0-.365578-.1636748-.365578-.365578v-22.44301967c0-.20190316.1636749-.365578.365578-.365578z"/><ellipse cx="58.561287" cy="3.381294" rx="3.216019" ry="3.325224"/><path d="m75.9428799 18.9713271-3.480091-.877625c-.8747383-.2120927-1.4806891-.4753802-1.822568-.7971761-.3423785-.320408-.5304812-.7807604-.5139972-1.2579291-.0143136-.6677769.3138868-1.293618.8629494-1.6455469.5729418-.3949313 1.3604421-.5923969 2.3742897-.5923969 1.0979509.0153385 2.1845151.2324362 3.2089457.6411538.2829342.1072653.8417293.3632393.8417293.3632393 2.3884364 1.0385229 3.0368274-.4875695 3.7842453-2.169684l.2239896-.6021483c.0772994-.1906606.0200859-.411243-.1391093-.5363264l-.0188623-.0219406c-.0092304-.0028454-.0190631-.0028454-.0282934 0-1.0590633-.8243208-2.2408322-1.4649113-3.4989533-1.89664516-1.3964287-.49873445-2.8632938-.75412236-4.3406826-.75573264-1.5860629-.03432501-3.1608939.28235944-4.6189012.92881979-1.2594571.56076161-2.3434776 1.47227991-3.1311388 2.63287501-.7467188 1.1297536-1.1355936 2.4714387-1.1128746 3.8396094 0 1.7682518.4715571 3.1846411 1.4146712 4.2491677.943114 1.0645266 2.4104424 1.8421999 4.4019849 2.3330198l3.3787062.8703114c1.03271.2437847 1.75655.5314507 2.1715202.8654358.4053831.3291783.6326779.8400365.6106664 1.372508.0247905.6574915-.3071738 1.2743771-.8605916 1.5992277-.5729418.3656771-1.3887355.54364-2.4544544.54364-1.3921534.0015909-2.7747784-.2373581-4.0907574-.7069757-.4526947-.1608979-1.3297908-.558267-1.3415797-.5655806-.6460332-.3169201-2.5133991-.8483708-3.5060266 2.0575431l-.3230166.9483226c-.0593847.1840917-.0075289.3870691.132036.5168236l.0259356.0268163c.011579.0121297.0251508.0220351.0400823.0292542.0085537.0018401.0173821.0018401.0259357 0 2.2304648 1.7211201 5.2169927 2.5784297 8.9595838 2.5719655 2.7491775 0 4.9206977-.633877 6.5051294-1.9186225 1.5844316-1.2847455 2.3742897-3.0131792 2.3742897-5.2096795 0-1.8235097-.4715571-3.2910938-1.4335334-4.388125-.9619764-1.0970313-2.4898212-1.9039587-4.621259-2.4475986z"/><path d="m45.7608714 18.2960434s0-.0121892 0-.0170649c.0141467-1.3335025.471557-3.3081587 4.8924043-3.7884146 2.0206219-.2194063 2.8812135-1.1360368 2.9142225-3.5446299v-1.13359893c0-.25446692-.1995115-.46075313-.4456214-.46075313h-4.4797919c-4.7755027.00537434-8.6455161 4.00679966-8.6507139 8.94446146v13.8323451c0 .253518.198075.4594118.4432636.4607532h4.8829732c.2451886-.0013414.443267-.2072352.4432636-.4607532z"/><path d="m102.128442 28.6373913c-.638959-1.6869903-1.51134-2.5475503-3.3268345-1.7528121-.1054896.0465662-.2133163.0872553-.3230166.1218923-.1391093.0585084-.2687875.1340816-.4078968.1877143-1.022134.3876543-2.1013815.5897196-3.1900834.5972725-1.7777701 0-3.1122765-.4875694-4.0082349-1.4822111-.7073356-.7801111-1.1788926-1.9502778-1.3910933-3.4641809h4.4797919c4.8405331 0 8.8086856-2.2476951 8.1225696-7.5914562-.256998-2.0185375-2.442665-6.42128961-8.5068886-6.42372746-1.8656868-.02884007-3.6997025.50025935-5.2814388 1.52365456-1.5755243 1.0488824-2.8299594 2.5395384-3.6168425 4.2979246-.8887465 1.9657446-1.3322498 4.1151549-1.2967819 6.2847701 0 3.7201549.9973431 6.6536977 2.9920294 8.8006285s4.7360046 3.2195836 8.2239548 3.2179602c1.4964789-.0035133 2.9824356-.258759 4.3996272-.7557345 1.2100064-.3898171 2.3418744-1.0026356 3.3409814-1.8088826 0 0 .014147 0 .02122-.0146271.029155-.0155012.055482-.0361234.077807-.0609462.130038-.1328058.174139-.3313479.113174-.5095101 0 0-.325374-.9141927-.422044-1.1677288zm-12.5740681-10.8557337c.2169162-1.2701184.6719688-2.2793871 1.3321486-2.9741736.724626-.7606083 1.6740275-1.1409125 2.8482046-1.1409125.248878.0033548.497154.0261732.7427023.0682597.0565868 0 .1155315.0146271.1697605.0268164 1.0350677.2096548 2.2233915.8215545 2.3412807 2.3257062.0104299.1450903.0025037.2909674-.0235778.4339368v.0463191c-.0268182.1336846-.0704132.2631736-.1296782.3851799 0 .0146271-.0117889.0292542-.0188623.0463191-.0658451.1173863-.1449971.2262331-.2357785.3242337-.0393294.043871-.0810516.0853821-.1249626.1243302-.0495135.0463191-.1037426.0902003-.1579716.1340816-.112072.0855885-.2303054.1621974-.3536678.2291576l-.1367515.0706976c-.0754492.0341298-.1461827.0706975-.2357786.1023896-.7194451.2676882-1.4776586.4070038-2.2422537.4119961-.9242518 0-2.7703976.0463191-3.8714833.0463191.0047156-.0975139.0683758-.4705045.0966692-.6606566z"/></g></svg>