<svg height="137" viewBox="0 0 418 137" width="418" xmlns="http://www.w3.org/2000/svg"><g fill="#0b4279" opacity=".039762"><g transform="translate(0 14.255888)"><path d="m115.569764 73.5510925h-30.7988924c-2.8025923-.0008644-5.4445919-1.3613282-7.1453431-3.6794029l-11.789816-15.5124653c-1.5381348-1.6127902-3.631311-2.5198743-5.8148309-2.5198743s-4.2766961.9070841-5.8148309 2.5198743l-11.7405378 15.4996451c-1.7020785 2.3249133-4.3490405 3.6903275-7.1576626 3.6922231h-31.43950941c-.53799653-.0005145-1.04629924.2566066-1.37826012.6971826s-.45065509 1.0156006-.32183874 1.559176c6.30761317 26.7942579 30.19523417 46.6527779 57.90191777 46.6527779 27.1167468 0 50.7342342-19.254168 57.2243422-46.6527779.129924-.5479762.008259-1.1276718-.329378-1.5693793-.337637-.4417074-.853053-.6954631-1.39536-.6869793z"/><path d="m69.3837449 49.3080579 12.652185 16.5509031c.7783874 1.0127131 1.9569167 1.6025425 3.2030849 1.6025425h31.7967762c.915615.0028477 1.678453-.729497 1.749377-1.6794638.086237-1.282022.135516-2.6922461.135516-4.0511893-.006802-33.8626766-26.3841889-61.31203122-58.9244415-61.3191088-32.53595 0-59.57737756 27.4609097-59.57737756 61.3191088 0 1.3589432 0 2.7178865.13551512 4.0511893.06476532.9479522.82382867 1.6818416 1.73705754 1.6794638h32.5113109c1.2435038.0034496 2.419719-.5872917 3.1907652-1.6025425l12.6645046-16.5509031c2.460403-2.6283426 5.8368544-4.1107784 9.3628633-4.1107784s6.9024604 1.4824358 9.3628633 4.1107784z" opacity=".5"/></g><path d="m228.934184 38.5923367h19.435136c.823765 0 1.491559.6677934 1.491559 1.4915583v92.033395c0 .823765-.667794 1.491559-1.491559 1.491559h-19.435136c-.823765 0-1.491558-.667794-1.491558-1.491559v-92.033395c0-.8237649.667793-1.4915583 1.491558-1.4915583z"/><ellipse cx="238.565307" cy="13.863655" rx="13.101327" ry="13.63376"/><path d="m309.373944 77.7843989-14.177096-3.5983531c-3.563484-.869602-6.031989-1.9491079-7.424725-3.268504-1.394772-1.3137059-2.16106-3.2011984-2.093907-5.1576394-.058311-2.7379542 1.278703-5.3039673 3.515458-6.746912 2.334034-1.6192589 5.542131-2.4288884 9.672314-2.4288884 4.472801.0628892 8.899215.9530122 13.072512 2.6287969 1.152609.4397987 3.429013 1.4893183 3.429013 1.4893183 9.729944 4.2580511 12.371341-1.999085 15.416151-8.8959284l.912482-2.46887c.3149-.781728.081825-1.6861389-.5667-2.1989936l-.07684-.0899588c-.037603-.0116665-.077659-.0116665-.115261 0-4.314382-3.3798001-9.128639-6.0062873-14.253936-7.7764408-5.688732-2.0448627-11.664406-3.0919795-17.68295-3.0985818-6.461258-.1407361-12.876759 1.1577028-18.816348 3.808257-5.130741 2.2991803-9.546792 6.0364994-12.755544 10.7950592-3.041962 4.6321065-4.626149 10.1331538-4.533597 15.7427947 0 7.250015 1.921016 13.0573571 5.763047 17.4220261s9.819592 7.5532096 17.932681 9.5656219l13.764077 3.5683668c4.207025.9995425 7.155784 2.1790027 8.846278 3.5483755 1.651438 1.349666 2.577385 3.444237 2.487715 5.627425.100991 2.695783-1.251356 5.225078-3.505854 6.556999-2.334034 1.499314-5.657391 2.22898-9.998886 2.22898-5.671315.006523-11.303814-.973193-16.664811-2.898674-1.844175-.659698-5.417264-2.288952-5.46529-2.318938-2.631791-1.299406-10.239013-3.478408-14.282751 8.436138l-1.315896 3.888221c-.24192.754795-.030671 1.587023.537884 2.11903l.105656.10995c.04717.049733.102459.090346.163287.119945.034845.007545.07081.007545.105655 0 9.086405 7.05677 21.252837 10.571828 36.499298 10.545324 11.199521 0 20.045799-2.598961 26.500411-7.86655 6.454613-5.267589 9.672314-12.354346 9.672314-21.360224 0-7.4765779-1.921016-13.4938239-5.839888-17.9917652-3.918872-4.4979414-10.142962-7.8064271-18.825953-10.0354069z"/><path d="m186.419336 75.0156661s0-.0499771 0-.069968c.057631-5.4674976 1.921016-13.563792 19.930538-15.5328907 8.231552-.8995883 11.737406-4.6578682 11.871877-14.5333483v-4.6478727c0-1.0433406-.812765-1.8891354-1.81536-1.8891354h-18.249649c-19.454307.0220354-35.219858 16.428292-35.241032 36.6732151v56.7140429c0 1.039449.806912 1.883635 1.805754 1.889135h19.892118c.998842-.0055 1.805768-.849686 1.805754-1.889135z"/><path d="m416.047944 117.41626c-2.602976-6.916834-6.156855-10.44522-13.552766-7.186711-.42974.190927-.869001.357756-1.315895.499771-.5667.239891-1.094979.549749-1.661679.769648-4.16394 1.589423-8.560548 2.417911-12.995671 2.448879-7.242229 0-12.678703-1.999085-16.328633-6.077218-2.881524-3.198536-4.802539-7.9963405-5.666996-14.2034995h18.249648c19.719226 0 35.884573-9.215782 33.089495-31.1257541-1.046953-8.276212-9.950861-26.3279499-34.655122-26.3379453-7.600382-.1182473-15.071743 2.0511149-21.515376 6.2471407-6.418326 4.3005263-11.528608 10.4123696-14.73419 17.6219346-3.62055 8.0597558-5.427281 16.8725596-5.282793 25.7682062 0 15.2530184 4.062948 27.2808474 12.188844 36.0834854 8.125897 8.802637 19.293401 13.200624 33.502514 13.193968 6.096313-.014405 12.149761-1.060938 17.923076-3.098589 4.929289-1.59829 9.540259-4.110909 13.610396-7.416606 0 0 .05763 0 .086445-.059972.11877-.063556.226022-.14811.316968-.249886.529745-.544517.709402-1.35856.461044-2.089044 0 0-1.325501-3.748284-1.719309-4.787808zm-51.223883-44.5096286c.883667-5.2076166 2.737447-9.3457226 5.426869-12.1944188 2.951961-3.1185726 6.819606-4.677859 11.602935-4.677859 1.013872.0137551 2.025292.1073127 3.0256.2798719.230522 0 .470648.0599726.691565.1099497 4.21663.8596066 9.057589 3.3684583 9.537843 9.5356357.042489.5948849.010199 1.1929964-.096051 1.7791856v.1899131c-.109251.5481205-.286847 1.079039-.528279 1.5792772 0 .0599726-.048025.1199451-.076841.1899131-.268238.4812961-.590685.927579-.960507 1.3293915-.160219.1798759-.330186.3500756-.50907.5097667-.201706.1899131-.422623.3698308-.64354.5497484-.456556.3509218-.938212.6650262-1.440762.93957l-.557094.2898673c-.307363.139936-.595515.2898673-.960508.4198079-2.930855 1.0975492-6.019644 1.6687578-9.13443 1.6892268-3.76519 0-11.285967.1899131-15.771538.1899131.01921-.399817.278547-1.9291171.393808-2.7087602z"/></g></svg>