<svg height="25" viewBox="0 0 77 25" width="77" xmlns="http://www.w3.org/2000/svg"><g fill="#fff"><g transform="translate(0 1)"><path d="m22.6615529 14.7361765h-6.0392156c-.5495477-.0001636-1.0676055-.2576573-1.4010981-.6963971l-2.3118117-2.9360294c-.301606-.3052513-.7120474-.4769342-1.140204-.4769342-.4281565 0-.838598.1716829-1.1402039.4769342l-2.30214901 2.9336029c-.33375289.4400342-.85278371.6984648-1.40351373.6988236h-6.16483137c-.10549331-.0000974-.20516409.0485676-.2702568.131955s-.08836692.1922218-.06310791.2951038c1.23683138 5.0713235 5.92084706 8.8299265 11.35372552 8.8299265 5.3172004.0000473 9.9482468-3.6442179 11.2208627-8.8299265.0254762-.1037149.0016194-.2134334-.0645862-.2970349-.0662057-.0836016-.1672714-.1316297-.2736099-.1300239z"/><path d="m13.6051451 10.1477206 2.4809098 3.1325735c.1526305.1916753.3837229.3032734.6280784.3033088h6.2348863c.1795388.0005419.3291203-.1380683.3430275-.3178676.0169098-.2426471.0265725-.5095588.0265725-.7667647-.0013336-6.40915629-5.1735563-11.60446927-11.5542274-11.60580883-6.37982749 0-11.68225887 5.19749999-11.68225887 11.60580883 0 .2572059 0 .5144118.02657255.7667647.01269954.179418.16154084.3183205.34061177.3178676h6.37499608c.24383304.0006558.47447176-.1111532.62566274-.3033088l2.48332549-3.1325735c.48244934-.49746389 1.14452244-.77804309 1.83592154-.77804309.6913992 0 1.3534723.2805792 1.8359216.77804309z" opacity=".5"/></g><path d="m42.6731083 6.63609375h3.4649834c.1460102 0 .264375.11836472.264375.264375v15.80968755c0 .1460102-.1183648.264375-.264375.264375h-3.4649834c-.1460102 0-.264375-.1183648-.264375-.264375v-15.80968755c0-.14601028.1183648-.264375.264375-.264375z"/><ellipse cx="44.39" cy="2.384" rx="2.334" ry="2.344"/><path d="m57.0045111 13.3753125-2.5256-.61875c-.6348222-.1495313-1.0745778-.3351563-1.3226889-.5620313-.2484737-.2258965-.3849851-.5504577-.3730222-.886875-.0103878-.4708012.2277965-.9120366.6262667-1.1601562.4158-.2784375.9873111-.41765625 1.7230889-.41765625.7968138.01081402 1.585364.16387394 2.3288222.45203125.2053333.075625.6108666.2560937.6108666.2560937 1.7333556.7321875 2.2039112-.34375 2.7463334-1.52968745l.1625555-.42453125c.0560984-.13442099.014577-.28993776-.1009555-.378125l-.0136889-.01546875c-.0066988-.0020061-.0138346-.0020061-.0205333 0-.7685921-.58116902-1.626235-1.03280311-2.5392889-1.3371875-1.0134277-.35162164-2.077973-.53167721-3.1501556-.5328125-1.1510505-.02420008-2.2939497.19907125-3.3520667.65484375-.9140235.39535248-1.7007276 1.0379982-2.2723555 1.85625-.5419149.79650769-.8241323 1.7424329-.8076445 2.7070312 0 1.2466667.3422223 2.2452605 1.0266667 2.9957813.6844445.7505208 1.7493259 1.2988021 3.1946445 1.6448437l2.4520222.6135938c.7494666.171875 1.2747778.3746875 1.5759333.6101562.294198.2320799.4591522.5922491.4431778.9676563.0179912.4635498-.2229247.8984713-.6245556 1.1275-.4158.2578125-1.0078444.3832812-1.7812666.3832812-1.010325.0011217-2.0137349-.167344-2.9687778-.4984375-.3285333-.1134375-.9650667-.3935937-.9736222-.39875-.4688445-.2234375-1.8240445-.598125-2.5444223 1.450625l-.2344222.6685938c-.0430971.1297898-.0054639.2728945.0958222.364375l.0188223.0189062c.0084032.0085518.0182526.0155354.0290889.020625.0062076.0012974.0126146.0012974.0188222 0 1.6187111 1.2134375 3.7861185 1.8178646 6.5022222 1.8132813 1.9951556 0 3.5710889-.446875 4.7209556-1.3526563 1.1498666-.9057812 1.7230888-2.124375 1.7230888-3.6729687 0-1.285625-.3422222-2.3203125-1.0403555-3.09375s-1.8069333-1.3423438-3.3537778-1.725625zm-21.9039333-.4760937s0-.0085938 0-.0120313c.0102666-.9401562.3422222-2.3323437 3.5505555-2.6709375 1.4664223-.1546875 2.0909778-.8009375 2.1149334-2.4990625v-.79921875c0-.17940625-.1447911-.32484375-.3234-.32484375h-3.2511111c-3.4657168.00378905-6.2742945 2.82490503-6.2780667 6.3060938v9.7521875c-.0000025.1787371.1437486.323898.3216889.3248437h3.5437111c.1779403-.0009457.3216914-.1461066.3216889-.3248437zm40.9075333 7.2909374c-.4637111-1.189375-1.0968222-1.7960937-2.4143778-1.2357812-.0765567.0328305-.1548096.0615175-.2344222.0859375-.1009555.04125-.1950667.0945312-.2960222.1323437-.7417914.2733072-1.5250317.4157687-2.3151333.4210938-1.2901778 0-2.2586667-.34375-2.9088889-1.045-.5133334-.55-.8555556-1.375-1.0095556-2.4423438h3.2511111c3.5129111 0 6.3927111-1.5846875 5.8947778-5.3521875-.1865111-1.42312495-1.7727111-4.52718745-6.1736889-4.5289062-1.3539815-.02033305-2.6849783.35269673-3.8328889 1.07421875-1.1434023.73949126-2.0537812 1.79044511-2.6248444 3.03015625-.6449884 1.3859046-.9668512 2.9012985-.9411111 4.4309375 0 2.6228125.7238 4.6910417 2.1714 6.2046875s3.4370518 2.2698958 5.9683555 2.26875c1.0860369-.0024757 2.1644375-.182431 3.1929334-.5328125.8781357-.2748319 1.6995638-.7068859 2.4246444-1.2753125 0 0 .0102667 0 .0154-.0103125.0211584-.0109288.0402649-.025468.0564667-.0429688.0943723-.0936317.1263774-.2336094.0821333-.3592187 0 0-.2361333-.6445313-.3062889-.8232813zm-9.1253555-7.6535937c.1574222-.8954688.4876666-1.6070313.9667777-2.096875.5258815-.53625 1.2148889-.804375 2.0670223-.804375.1806178.00236523.3607986.01845281.539.048125.0410666 0 .0838444.0103125.1232.01890625.7511777.1478125 1.6135777.57921875 1.6991333 1.63968745.0075692.1022927.001817.2051402-.0171111.3059375v.0326563c-.0194627.0942513-.0511008.1855447-.0941111.2715625 0 .0103125-.0085556.020625-.0136889.0326562-.0477857.0827607-.1052285.1595007-.1711111.2285938-.0285425.0309303-.0588215.0601968-.0906889.0876562-.0359334.0326563-.0752889.0635938-.1146445.0945313-.0813338.0603423-.1671391.1143537-.2566666.1615625l-.0992445.0498437c-.0547555.0240625-.1060889.0498438-.1711111.0721875-.5221216.1887277-1.0723785.2869491-1.6272667.2904688-.6707555 0-2.0105555.0326562-2.8096444.0326562.0034222-.06875.0496222-.3317187.0701556-.4657812z"/></g></svg>